<?xml version="1.0" encoding="UTF-8"?>
<svg version="1.1" xmlns="http://www.w3.org/2000/svg" width="25" height="25">
<path d="M0 0 C26.53409932 22.69948475 40.52572761 52.42926802 46.20605469 86.51123047 C46.20605469 111.92123047 46.20605469 137.33123047 46.20605469 163.51123047 C-21.11394531 163.51123047 -88.43394531 163.51123047 -157.79394531 163.51123047 C-154.77922196 180.27242224 -154.77922196 180.27242224 -148.79394531 195.51123047 C-148.27960938 196.51412109 -147.76527344 197.51701172 -147.23535156 198.55029297 C-143.28167369 205.76370064 -138.59019777 211.69526286 -132.79394531 217.51123047 C-132.11847656 218.20990234 -131.44300781 218.90857422 -130.74707031 219.62841797 C-119.1559011 230.82740477 -102.78779163 237.44497405 -86.79394531 238.51123047 C-86.08753906 238.56279297 -85.38113281 238.61435547 -84.65332031 238.66748047 C-64.0783709 239.48502813 -45.95198934 230.80661127 -30.64160156 217.66357422 C-27.37653719 214.53177778 -24.63974705 211.07214059 -21.85644531 207.51123047 C-14.61065996 198.36740957 -5.5203659 190.96522666 6.20605469 188.51123047 C9.11564847 188.42744541 12.00026709 188.39505152 14.90917969 188.41357422 C15.7469696 188.41498917 16.58475952 188.41640411 17.44793701 188.41786194 C20.11734626 188.4234485 22.78667089 188.43599853 25.45605469 188.44873047 C27.26855347 188.45374721 29.08105358 188.45830981 30.89355469 188.46240234 C35.33108717 188.47341353 39.76855659 188.49066892 44.20605469 188.51123047 C37.41566003 221.02395944 16.77805942 251.81475223 -11.01660156 270.17138672 C-41.89931277 289.64110131 -75.90923606 296.12044185 -111.71704102 288.29663086 C-131.20944195 283.72060606 -149.86998064 273.75259128 -164.79394531 260.51123047 C-165.52097656 259.90408203 -166.24800781 259.29693359 -166.99707031 258.67138672 C-191.22184244 238.28374453 -205.99302559 206.56861937 -209.79394531 175.51123047 C-209.93958242 172.62848848 -209.960942 169.75008226 -209.97094727 166.86401367 C-209.97751846 166.02704956 -209.98408966 165.19008545 -209.99085999 164.32775879 C-210.01047693 161.57250857 -210.02223619 158.81731286 -210.03222656 156.06201172 C-210.03833985 154.63623841 -210.03833985 154.63623841 -210.04457664 153.18166161 C-210.0653987 148.14007159 -210.07971116 143.09850839 -210.08911133 138.05688477 C-210.10010411 132.90560829 -210.13443185 127.75477232 -210.17428303 122.60365009 C-210.20072233 118.59589462 -210.20882756 114.58823924 -210.21239281 110.58040428 C-210.21719698 108.68501026 -210.22862891 106.78961876 -210.2474308 104.8943119 C-210.60592381 66.32722398 -195.91523494 32.2294079 -169.11035156 4.76123047 C-122.49429787 -39.56904347 -49.04112585 -40.69852823 0 0 Z M-129.79394531 40.51123047 C-130.76460937 41.28337891 -131.73527344 42.05552734 -132.73535156 42.85107422 C-147.26048501 54.9819549 -154.19431344 73.5130711 -157.79394531 91.51123047 C-157.79394531 98.11123047 -157.79394531 104.71123047 -157.79394531 111.51123047 C-107.63394531 111.51123047 -57.47394531 111.51123047 -5.79394531 111.51123047 C-5.79394531 86.89289975 -9.31627386 69.74585112 -23.79394531 50.51123047 C-24.30957031 49.82029297 -24.82519531 49.12935547 -25.35644531 48.41748047 C-37.26486738 33.53195289 -56.08960842 24.6083192 -74.79394531 22.51123047 C-95.44940229 21.0495334 -114.03354586 26.95967488 -129.79394531 40.51123047 Z " fill="#AFC0D3" transform="translate(209.7939453125,131.48876953125)"/>
<path d="M0 0 C7.04332967 -0.10217798 14.08646525 -0.17178927 21.13037109 -0.21972656 C23.52204532 -0.23972977 25.91367133 -0.26694124 28.30517578 -0.30175781 C31.76086386 -0.35077466 35.21590033 -0.37308262 38.671875 -0.390625 C39.72550232 -0.41127014 40.77912964 -0.43191528 41.86468506 -0.45318604 C55.94970921 -0.4573574 66.70573274 4.95873854 76.875 14.4375 C82.29370793 20.08424974 86.76784156 26.53350192 91.39257812 32.828125 C94.03318929 36.39599817 96.73498302 39.91642047 99.4375 43.4375 C99.97938965 44.14479248 100.5212793 44.85208496 101.07958984 45.58081055 C102.17680171 47.01291112 103.27429485 48.44479625 104.37207031 49.87646484 C132.41412649 86.45561971 132.41412649 86.45561971 144 102 C148.22864135 100.59045288 149.86087725 97.4857014 152.375 94 C153.45618722 92.52932704 154.53824725 91.05929542 155.62109375 89.58984375 C156.17909668 88.82913574 156.73709961 88.06842773 157.31201172 87.28466797 C159.97721288 83.67735636 162.70589042 80.11963694 165.4375 76.5625 C166.52998792 75.1367494 167.62243562 73.71096799 168.71484375 72.28515625 C169.25737793 71.57762207 169.79991211 70.87008789 170.35888672 70.14111328 C173.07575428 66.59649434 175.78763701 63.04806623 178.5 59.5 C179.58330916 58.08331485 180.6666425 56.66664819 181.75 55.25 C182.28625 54.54875 182.8225 53.8475 183.375 53.125 C185 51 186.625 48.875 188.25 46.75 C188.78657227 46.04810547 189.32314453 45.34621094 189.87597656 44.62304688 C190.95518435 43.21222443 192.03525726 41.80206334 193.11621094 40.39257812 C195.89527486 36.76654541 198.65653934 33.1288463 201.390625 29.46875 C211.59208685 15.85253584 221.27611763 3.44405425 239 0 C242.73055512 -0.26220413 246.44541389 -0.2333744 250.18359375 -0.1953125 C251.23909927 -0.1924826 252.2946048 -0.18965271 253.38209534 -0.18673706 C256.73401504 -0.17559415 260.08566184 -0.15050024 263.4375 -0.125 C265.71809508 -0.1149626 267.99869438 -0.10583808 270.27929688 -0.09765625 C275.85295678 -0.07567412 281.42645889 -0.04225537 287 0 C287.14426324 4.3165704 286.65659009 6.05967756 283.95703125 9.484375 C283.3019458 10.32838867 282.64686035 11.17240234 281.97192383 12.04199219 C281.25931396 12.93563477 280.5467041 13.82927734 279.8125 14.75 C278.33330312 16.64580976 276.85413684 18.5416434 275.375 20.4375 C274.63378906 21.37851563 273.89257812 22.31953125 273.12890625 23.2890625 C270.1516241 27.0803172 267.23137596 30.91373714 264.3125 34.75 C263.25695119 36.13054545 262.20096336 37.51075536 261.14453125 38.890625 C257.92867255 43.09297415 254.7142484 47.29641912 251.5 51.5 C250.41667271 52.91667128 249.33333938 54.33333796 248.25 55.75 C247.71375 56.45125 247.1775 57.1525 246.625 57.875 C202.75 115.25 202.75 115.25 201.12182617 117.37817383 C200.04781293 118.78329938 198.97504114 120.18937479 197.90356445 121.59643555 C195.06252892 125.32375299 192.19654353 129.02816036 189.29296875 132.70703125 C188.6896875 133.47789062 188.08640625 134.24875 187.46484375 135.04296875 C186.30469634 136.52438776 185.13703345 137.99996049 183.9609375 139.46875 C183.44144531 140.13519531 182.92195312 140.80164063 182.38671875 141.48828125 C181.92483154 142.07134033 181.46294434 142.65439941 180.98706055 143.25512695 C179.67175318 145.24613857 179.67175318 145.24613857 180 149 C181.07787146 150.92651251 181.07787146 150.92651251 182.640625 152.765625 C183.21039063 153.48234375 183.78015625 154.1990625 184.3671875 154.9375 C184.98851562 155.700625 185.60984375 156.46375 186.25 157.25 C187.54811888 158.87921802 188.84497246 160.50944491 190.140625 162.140625 C190.79353516 162.95853516 191.44644531 163.77644531 192.11914062 164.61914062 C194.81366225 168.02996291 197.4110856 171.50875464 200 175 C204.26207433 180.7236832 208.60553066 186.37738203 213 192 C217.89686785 198.26542481 222.71016758 204.58423562 227.4609375 210.9609375 C231.2436161 216.02452313 235.10790795 221.0201617 239 226 C243.89686785 232.26542481 248.71016758 238.58423562 253.4609375 244.9609375 C257.24361656 250.02452376 261.10792661 255.02014608 265 260 C271.05583473 267.74885479 277.03128288 275.55657875 282.85302734 283.48339844 C283.79053313 284.72302933 284.80205571 285.90637425 285.83203125 287.0703125 C287.44545793 289.73597398 287.07762591 291.93806037 287 295 C280.68707332 295.10243299 274.37436524 295.17189283 268.06079102 295.21972656 C265.91845695 295.2396927 263.77617632 295.26687538 261.6340332 295.30175781 C243.94540068 295.58233328 228.67086061 294.82125773 214.9609375 282.109375 C209.57156668 276.29861305 204.98703552 269.73966242 200.2734375 263.37890625 C196.91766818 258.86496004 193.46627913 254.42934623 190 250 C185.10334495 243.73573233 180.29023843 237.41800551 175.54125977 231.04125977 C171.74107182 225.95274457 167.85180626 220.93858186 163.9375 215.9375 C157.78880761 208.07866535 151.84454134 200.08693679 146 192 C141.77135865 193.40954712 140.13912275 196.5142986 137.625 200 C136.54381278 201.47067296 135.46175275 202.94070458 134.37890625 204.41015625 C133.82090332 205.17086426 133.26290039 205.93157227 132.68798828 206.71533203 C130.02278712 210.32264364 127.29410958 213.88036306 124.5625 217.4375 C123.47001208 218.8632506 122.37756438 220.28903201 121.28515625 221.71484375 C120.74262207 222.42237793 120.20008789 223.12991211 119.64111328 223.85888672 C116.92424572 227.40350566 114.21236299 230.95193377 111.5 234.5 C110.41669084 235.91668515 109.3333575 237.33335181 108.25 238.75 C107.71375 239.45125 107.1775 240.1525 106.625 240.875 C105 243 103.375 245.125 101.75 247.25 C101.21310547 247.95213623 100.67621094 248.65427246 100.12304688 249.37768555 C99.04639331 250.78552992 97.96957208 252.19324609 96.89257812 253.60083008 C94.08061198 257.27641067 91.27213134 260.95458518 88.46875 264.63671875 C87.59766602 265.77947266 87.59766602 265.77947266 86.70898438 266.9453125 C85.6050297 268.39370103 84.50209227 269.84286573 83.40039062 271.29296875 C74.21778413 283.33264743 64.4821333 292.32997288 49 295 C47.28241343 295.08263667 45.56209712 295.11787873 43.8425293 295.11352539 C42.84186935 295.11344986 41.84120941 295.11337433 40.81022644 295.11329651 C39.7423439 295.10813522 38.67446136 295.10297394 37.57421875 295.09765625 C36.47149124 295.0962413 35.36876373 295.09482635 34.23262024 295.09336853 C30.71755233 295.08778004 27.20254859 295.07522959 23.6875 295.0625 C21.30143321 295.05748352 18.91536543 295.05292087 16.52929688 295.04882812 C10.6861761 295.03781437 4.84309263 295.02108764 -1 295 C-0.05416355 293.56876985 0.89334754 292.13864631 1.84155273 290.70898438 C2.36901596 289.9124646 2.89647919 289.11594482 3.43992615 288.29528809 C5.51184784 285.24693421 7.75200125 282.36903747 10.0625 279.5 C11.02572845 278.28854601 11.9879229 277.07626934 12.94921875 275.86328125 C13.44728027 275.23502441 13.9453418 274.60676758 14.45849609 273.95947266 C17.13152248 270.56167257 19.75322675 267.12490979 22.375 263.6875 C22.91842041 262.97529297 23.46184082 262.26308594 24.02172852 261.52929688 C25.12899724 260.07750469 26.23601135 258.62551829 27.34277344 257.17333984 C30.0579464 253.6125753 32.77924098 250.05649684 35.5 246.5 C36.58336355 245.08335644 37.66669686 243.66668976 38.75 242.25 C53.91666667 222.41666667 69.08333333 202.58333333 84.25 182.75 C84.7869751 182.0477832 85.3239502 181.34556641 85.87719727 180.62207031 C86.95313379 179.21511375 88.0291421 177.80821209 89.10522461 176.40136719 C91.92734107 172.71159867 94.74795147 169.02069147 97.56640625 165.328125 C98.15164063 164.56177734 98.736875 163.79542969 99.33984375 163.00585938 C100.4561928 161.54397372 101.57210578 160.08175492 102.6875 158.61914062 C105.41745383 155.04519344 108.17294806 151.49822255 111 148 C109.70526387 145.25108861 108.27678332 142.88918096 106.41796875 140.48828125 C105.64839844 139.48861328 105.64839844 139.48861328 104.86328125 138.46875 C104.31027344 137.7571875 103.75726563 137.045625 103.1875 136.3125 C102.0038177 134.77741202 100.82022646 133.24225383 99.63671875 131.70703125 C99.03134277 130.92408691 98.4259668 130.14114258 97.80224609 129.33447266 C95.02180181 125.73292725 92.26132468 122.11621093 89.5 118.5 C88.41677558 117.08325005 87.33344191 115.66658363 86.25 114.25 C40.75 54.74999999 40.75 54.74999999 39.12426758 52.62402344 C38.04339983 51.21059349 36.96250799 49.79718196 35.8815918 48.38378906 C33.13533495 44.79275299 30.38952697 41.2013752 27.64453125 37.609375 C26.53385875 36.1562465 25.42318171 34.70312147 24.3125 33.25 C23.77214111 32.54278809 23.23178223 31.83557617 22.67504883 31.10693359 C20.20469499 27.87551685 17.73065069 24.64718559 15.2421875 21.4296875 C0 1.72099828 0 1.72099828 0 0 Z " fill="#66798F" transform="translate(225,115)"/>
<path d="M0 0 C26.53409932 22.69948475 40.52572761 52.42926802 46.20605469 86.51123047 C46.20605469 111.92123047 46.20605469 137.33123047 46.20605469 163.51123047 C-21.11394531 163.51123047 -88.43394531 163.51123047 -157.79394531 163.51123047 C-154.77922196 180.27242224 -154.77922196 180.27242224 -148.79394531 195.51123047 C-148.27960938 196.51412109 -147.76527344 197.51701172 -147.23535156 198.55029297 C-143.28167369 205.76370064 -138.59019777 211.69526286 -132.79394531 217.51123047 C-132.11847656 218.20990234 -131.44300781 218.90857422 -130.74707031 219.62841797 C-119.1559011 230.82740477 -102.78779163 237.44497405 -86.79394531 238.51123047 C-86.08753906 238.56279297 -85.38113281 238.61435547 -84.65332031 238.66748047 C-64.0783709 239.48502813 -45.95198934 230.80661127 -30.64160156 217.66357422 C-27.37653719 214.53177778 -24.63974705 211.07214059 -21.85644531 207.51123047 C-14.61065996 198.36740957 -5.5203659 190.96522666 6.20605469 188.51123047 C9.11564847 188.42744541 12.00026709 188.39505152 14.90917969 188.41357422 C15.7469696 188.41498917 16.58475952 188.41640411 17.44793701 188.41786194 C20.11734626 188.4234485 22.78667089 188.43599853 25.45605469 188.44873047 C27.26855347 188.45374721 29.08105358 188.45830981 30.89355469 188.46240234 C35.33108717 188.47341353 39.76855659 188.49066892 44.20605469 188.51123047 C37.41566003 221.02395944 16.77805942 251.81475223 -11.01660156 270.17138672 C-41.89931277 289.64110131 -75.90923606 296.12044185 -111.71704102 288.29663086 C-131.20944195 283.72060606 -149.86998064 273.75259128 -164.79394531 260.51123047 C-165.52097656 259.90408203 -166.24800781 259.29693359 -166.99707031 258.67138672 C-191.22184244 238.28374453 -205.99302559 206.56861937 -209.79394531 175.51123047 C-209.93958242 172.62848848 -209.960942 169.75008226 -209.97094727 166.86401367 C-209.97751846 166.02704956 -209.98408966 165.19008545 -209.99085999 164.32775879 C-210.01047693 161.57250857 -210.02223619 158.81731286 -210.03222656 156.06201172 C-210.03833985 154.63623841 -210.03833985 154.63623841 -210.04457664 153.18166161 C-210.0653987 148.14007159 -210.07971116 143.09850839 -210.08911133 138.05688477 C-210.10010411 132.90560829 -210.13443185 127.75477232 -210.17428303 122.60365009 C-210.20072233 118.59589462 -210.20882756 114.58823924 -210.21239281 110.58040428 C-210.21719698 108.68501026 -210.22862891 106.78961876 -210.2474308 104.8943119 C-210.60592381 66.32722398 -195.91523494 32.2294079 -169.11035156 4.76123047 C-122.49429787 -39.56904347 -49.04112585 -40.69852823 0 0 Z M-166.79394531 21.51123047 C-184.86705908 41.48876865 -196.91407191 69.59160898 -196.95507812 96.63354492 C-196.96004303 97.42641403 -196.96500793 98.21928314 -196.97012329 99.03617859 C-196.98467578 101.64896533 -196.99153889 104.26169116 -196.99707031 106.87451172 C-196.99989769 107.77452597 -197.00272507 108.67454021 -197.00563812 109.60182762 C-197.02061046 114.37412176 -197.02984956 119.14638588 -197.03417969 123.91870117 C-197.0396307 128.80230803 -197.06359246 133.68563133 -197.09215164 138.56914997 C-197.11096747 142.3623275 -197.11599379 146.15543968 -197.11751556 149.9486599 C-197.12050518 151.74604004 -197.12840539 153.5434201 -197.14170074 155.34075356 C-197.24955652 171.05571315 -195.76419277 185.89422129 -190.10644531 200.69873047 C-189.75831787 201.6279834 -189.41019043 202.55723633 -189.05151367 203.51464844 C-184.16471769 216.17614231 -177.26786803 226.89902818 -168.79394531 237.51123047 C-167.99150391 238.52830078 -167.99150391 238.52830078 -167.17285156 239.56591797 C-150.96190063 259.33537032 -124.1339938 274.68020506 -98.55126953 277.30834961 C-65.60289339 279.7326546 -35.58522179 274.20525197 -9.71191406 252.14013672 C5.63679017 238.31191992 17.02874489 223.60684777 25.20605469 204.51123047 C25.20605469 203.52123047 25.20605469 202.53123047 25.20605469 201.51123047 C13.2522089 201.08599485 4.20346171 201.3255315 -5.34863281 209.16357422 C-8.94852327 212.61969908 -12.08571597 216.42250575 -15.28808594 220.24365234 C-28.54515076 235.98117936 -47.32825438 247.86044886 -67.91894531 251.26904297 C-92.25099676 253.31875382 -115.51762757 248.82755852 -135.10644531 233.63623047 C-136.68894369 232.28429477 -138.25152878 230.90872196 -139.79394531 229.51123047 C-140.62410156 228.77388672 -141.45425781 228.03654297 -142.30957031 227.27685547 C-164.31998663 206.61677144 -169.4677707 179.68707191 -170.79394531 150.51123047 C-103.47394531 150.51123047 -36.15394531 150.51123047 33.20605469 150.51123047 C33.75513803 73.51610345 33.75513803 73.51610345 -4.26269531 13.97216797 C-18.82333584 0.23663041 -36.53228568 -8.47005001 -55.79394531 -13.48876953 C-56.89351562 -13.78783203 -57.99308594 -14.08689453 -59.12597656 -14.39501953 C-99.15112375 -23.92691787 -139.06806483 -7.33939597 -166.79394531 21.51123047 Z " fill="#66798F" transform="translate(209.7939453125,131.48876953125)"/>
<path d="M0 0 C26.32976797 -0.95331286 26.32976797 -0.95331286 36.8125 7.625 C44.08047218 14.6395722 49.96822646 22.9319463 56 31 C57.02337223 32.36333025 58.04680657 33.72661387 59.0703125 35.08984375 C60.53605034 37.04456573 62.00026417 39.0003544 63.46044922 40.95922852 C67.24216711 46.02423018 71.10757123 51.01973088 75 56 C79.89461029 62.2625363 84.7058568 68.57831643 89.4543457 74.95214844 C93.87884364 80.87497063 98.41811468 86.70497428 102.96923828 92.53076172 C107.72715253 98.62821799 112.39469639 104.78649513 117 111 C120.80989965 109.73003345 121.54115828 108.24095756 123.875 105 C124.67862652 103.89896441 125.48338029 102.79875099 126.2890625 101.69921875 C126.72379883 101.10286621 127.15853516 100.50651367 127.60644531 99.89208984 C130.10734126 96.49651459 132.68214212 93.15754343 135.25 89.8125 C136.36988304 88.35033039 137.48967359 86.88808994 138.609375 85.42578125 C139.17076172 84.69311035 139.73214844 83.96043945 140.31054688 83.20556641 C143.04266822 79.63880568 145.77119272 76.06929641 148.5 72.5 C149.5833152 71.08331947 150.66664855 69.66665282 151.75 68.25 C152.28625 67.54875 152.8225 66.8475 153.375 66.125 C159.33333333 58.33333333 165.29166667 50.54166667 171.25 42.75 C171.7867334 42.04794434 172.3234668 41.34588867 172.87646484 40.62255859 C173.95423821 39.21351173 175.0326832 37.80497833 176.11181641 36.39697266 C178.91109376 32.74276027 181.69629244 29.07893915 184.4609375 25.3984375 C185.03263672 24.64111328 185.60433594 23.88378906 186.19335938 23.10351562 C187.27460548 21.67064477 188.35177829 20.23468616 189.42382812 18.79492188 C194.14130916 12.56001503 198.99806007 6.43170217 206.25 3.125 C207.08015625 2.73570312 207.9103125 2.34640625 208.765625 1.9453125 C212.4126084 0.40235798 215.17361175 -0.12038375 219.10546875 -0.09765625 C220.08837891 -0.09443359 221.07128906 -0.09121094 222.08398438 -0.08789062 C223.62022461 -0.07532227 223.62022461 -0.07532227 225.1875 -0.0625 C226.74114258 -0.05573242 226.74114258 -0.05573242 228.32617188 -0.04882812 C230.88417266 -0.0370401 233.44205733 -0.02058515 236 0 C233.24780196 5.09546099 230.18631601 9.48365369 226.5 13.9375 C222.25885022 19.14811125 218.13063865 24.41869575 214.125 29.8125 C209.82220119 35.59987777 205.4421086 41.31884086 201 47 C196.60537473 52.62255291 192.26348914 58.2773488 188 64 C183.15775623 70.49948228 178.20187127 76.90328261 173.2109375 83.2890625 C169.41755828 88.15194071 165.68471967 93.05437776 162 98 C156.01371754 106.032444 149.8668617 113.93592667 143.69677734 121.82763672 C140.79170101 125.54697041 137.89608171 129.27366092 135 133 C136.38976292 135.97556083 138.01044833 138.51113476 139.984375 141.1328125 C140.58266113 141.92969482 141.18094727 142.72657715 141.79736328 143.54760742 C142.4417334 144.39814697 143.08610352 145.24868652 143.75 146.125 C144.4188623 147.01227783 145.08772461 147.89955566 145.77685547 148.8137207 C151.31497009 156.1407415 156.94335466 163.39533835 162.59765625 170.6328125 C167.57886904 177.01388109 172.48245564 183.45419007 177.39111328 189.89111328 C180.09085847 193.42986881 182.79569689 196.96472723 185.5 200.5 C186.5833575 201.91664819 187.66669084 203.33331485 188.75 204.75 C189.28625 205.45125 189.8225 206.1525 190.375 206.875 C199.3125 218.5625 199.3125 218.5625 208.25 230.25 C208.78681396 230.95189453 209.32362793 231.65378906 209.87670898 232.37695312 C210.95470859 233.78683199 212.03234821 235.19698616 213.10961914 236.60742188 C215.89659707 240.25533849 218.69058183 243.89756281 221.49609375 247.53125 C226.90116983 254.54334322 232.25837343 261.51328276 237 269 C211.0798826 269.73572386 211.0798826 269.73572386 201 262 C200.24332031 261.45601563 199.48664063 260.91203125 198.70703125 260.3515625 C195.25504408 257.35286657 192.71562847 253.97312739 190 250.3125 C188.84391518 248.77721936 187.68766044 247.24206664 186.53125 245.70703125 C185.94472656 244.92408691 185.35820312 244.14114258 184.75390625 243.33447266 C182.02668886 239.70450986 179.26260673 236.10305346 176.5 232.5 C175.41646704 231.08348601 174.33313423 229.6668189 173.25 228.25 C172.71375 227.54875 172.1775 226.8475 171.625 226.125 C165.66666667 218.33333333 159.70833333 210.54166667 153.75 202.75 C153.21366943 202.04866943 152.67733887 201.34733887 152.12475586 200.62475586 C151.04213965 199.20897692 149.95962002 197.79312412 148.87719727 196.37719727 C146.15868159 192.82133461 143.43846615 189.26679681 140.71484375 185.71484375 C133.41429639 176.18932637 126.1821861 166.61507077 119 157 C115.19010035 158.26996655 114.45884172 159.75904244 112.125 163 C111.32137348 164.10103559 110.51661971 165.20124901 109.7109375 166.30078125 C109.27620117 166.89713379 108.84146484 167.49348633 108.39355469 168.10791016 C105.89265874 171.50348541 103.31785788 174.84245657 100.75 178.1875 C99.63011696 179.64966961 98.51032641 181.11191006 97.390625 182.57421875 C96.82923828 183.30688965 96.26785156 184.03956055 95.68945312 184.79443359 C92.95733178 188.36119432 90.22880728 191.93070359 87.5 195.5 C86.4166848 196.91668053 85.33335145 198.33334718 84.25 199.75 C83.71375 200.45125 83.1775 201.1525 82.625 201.875 C76.66666667 209.66666667 70.70833333 217.45833333 64.75 225.25 C64.2130249 225.9522168 63.6760498 226.65443359 63.12280273 227.37792969 C62.04686621 228.78488625 60.9708579 230.19178791 59.89477539 231.59863281 C57.07265893 235.28840133 54.25204853 238.97930853 51.43359375 242.671875 C50.84835937 243.43822266 50.263125 244.20457031 49.66015625 244.99414062 C48.5438072 246.45602628 47.42789422 247.91824508 46.3125 249.38085938 C45.31840939 250.68228335 44.32212829 251.98203824 43.32324219 253.27978516 C42.17098966 254.77771345 41.02803179 256.28278245 39.88671875 257.7890625 C34.60661837 263.97650933 26.99858256 267.87112888 19 269 C12.33656501 269.32170179 5.6658105 269.18920423 -1 269 C2.8864352 263.00131478 6.99868699 257.28715466 11.4375 251.6875 C16.54403793 245.1867788 21.5592542 238.62756289 26.5 232 C31.87637334 224.79581268 37.33480591 217.66392721 42.86889648 210.58032227 C48.42861298 203.46284874 53.91459559 196.29046799 59.39111328 189.10888672 C62.09085847 185.57013119 64.79569689 182.03527277 67.5 178.5 C68.5833575 177.08335181 69.66669084 175.66668515 70.75 174.25 C77.25 165.75 77.25 165.75 78.87841797 163.62207031 C79.9523445 162.21668498 81.02431333 160.80980132 82.09423828 159.40136719 C84.9315552 155.67192653 87.8064473 151.98074962 90.7421875 148.328125 C91.34998047 147.56177734 91.95777344 146.79542969 92.58398438 146.00585938 C93.75271062 144.5337996 94.93324687 143.07101747 96.12695312 141.61914062 C99.14657536 137.91620239 99.14657536 137.91620239 100.12890625 133.390625 C98.65236221 130.26382585 96.73255721 127.66471157 94.5625 125 C93.64301121 123.83871421 92.72374631 122.67725112 91.8046875 121.515625 C91.33514648 120.92845703 90.86560547 120.34128906 90.38183594 119.73632812 C88.28360493 117.09982302 86.23702228 114.42445858 84.1875 111.75 C83.35427848 110.66658067 82.52094181 109.58324988 81.6875 108.5 C77.0046317 102.40528186 72.34024648 96.29639511 67.67333984 90.18945312 C64.94966736 86.62571008 62.22478337 83.06289369 59.5 79.5 C58.41666062 78.08333796 57.33332729 76.66667128 56.25 75.25 C55.71375 74.54875 55.1775 73.8475 54.625 73.125 C44.33333333 59.66666667 34.04166667 46.20833333 23.75 32.75 C23.2127832 32.04762207 22.67556641 31.34524414 22.12207031 30.62158203 C21.04796996 29.21671567 19.97439482 27.81144758 18.90136719 26.40576172 C16.05613397 22.67994354 13.19987228 18.96324405 10.328125 15.2578125 C9.4299707 14.09475586 9.4299707 14.09475586 8.51367188 12.90820312 C7.36205141 11.41734563 6.20723995 9.92894607 5.04882812 8.44335938 C4.53255859 7.77369141 4.01628906 7.10402344 3.484375 6.4140625 C2.79939941 5.53161865 2.79939941 5.53161865 2.10058594 4.63134766 C1 3 1 3 0 0 Z " fill="#AFC0D3" transform="translate(252,128)"/>
<path d="M0 0 C0.72703125 0.54140625 1.4540625 1.0828125 2.203125 1.640625 C21.50510872 17.176368 31.22760451 41.24788027 35 65 C35 75.23 35 85.46 35 96 C-24.4 96 -83.8 96 -145 96 C-145 61.3755118 -142.3350793 32.70435421 -118.296875 7.17578125 C-84.80414802 -24.55117271 -36.95995286 -28.16947758 0 0 Z M-103 12 C-103.97066406 12.77214844 -104.94132812 13.54429687 -105.94140625 14.33984375 C-120.4665397 26.47072443 -127.40036813 45.00184063 -131 63 C-131 69.6 -131 76.2 -131 83 C-80.84 83 -30.68 83 21 83 C21 58.38166928 17.47767145 41.23462065 3 22 C2.484375 21.3090625 1.96875 20.618125 1.4375 19.90625 C-10.47092206 5.02072242 -29.29566311 -3.90291127 -48 -6 C-68.65545698 -7.46169707 -87.23960055 -1.55155559 -103 12 Z " fill="#66798F" transform="translate(183,160)"/>
</svg>
