<?xml version="1.0" encoding="UTF-8"?>
<svg version="1.1" xmlns="http://www.w3.org/2000/svg" width="25" height="25">
<path d="M0 0 C118.47 0 236.94 0 359 0 C359 46.2 359 92.4 359 140 C240.53 140 122.06 140 0 140 C0 93.8 0 47.6 0 0 Z " fill="#FBF4AD" transform="translate(0,0)"/>
<path d="M0 0 C2.5 0.25 2.5 0.25 4.5 2.25 C4.125 5.875 4.125 5.875 3.5 9.25 C6.47 9.25 9.44 9.25 12.5 9.25 C12.7475 10.425625 12.7475 10.425625 13 11.625 C14.18500451 14.36778379 14.18500451 14.36778379 16.34375 14.88671875 C17.78629828 15.17156977 19.23035759 15.44886838 20.67578125 15.71875 C22.5 16.25 22.5 16.25 23.6875 18.3125 C23.955625 18.951875 24.22375 19.59125 24.5 20.25 C26.16106829 20.61019581 27.82928155 20.93760805 29.5 21.25 C33.56293164 22.77018169 37.52479519 24.51487682 41.5 26.25 C42.18578125 26.53230469 42.8715625 26.81460937 43.578125 27.10546875 C45.1875 27.8125 45.1875 27.8125 47.5 29.25 C48.14453125 31.33984375 48.14453125 31.33984375 48.5 33.25 C47.10386935 33.10704109 45.70810692 32.96048442 44.3125 32.8125 C43.53519531 32.73128906 42.75789063 32.65007813 41.95703125 32.56640625 C39.43971527 32.24223678 36.98574876 31.75873664 34.5 31.25 C34.67172155 61.37670941 34.67172155 61.37670941 46.5 88.25 C47.02464844 88.971875 47.54929687 89.69375 48.08984375 90.4375 C57.67385809 103.30311562 69.50785864 112.84504145 85.5 116.25 C86.20769531 116.44851562 86.91539063 116.64703125 87.64453125 116.8515625 C89.95841261 117.45808851 89.95841261 117.45808851 93.5 117.25 C95.51731899 115.87149869 97.15862394 114.34117737 98.890625 112.62109375 C100.5 111.25 100.5 111.25 103.4375 110.875 C104.118125 110.99875 104.79875 111.1225 105.5 111.25 C104.89676766 114.62810112 103.59807945 116.57255812 101.5 119.25 C102.59957031 119.23839844 103.69914062 119.22679688 104.83203125 119.21484375 C113.11536634 119.15482638 121.26128653 119.25352494 129.5 120.25 C128.625 125.125 128.625 125.125 127.5 126.25 C125.4427083 126.56923492 123.38386479 126.76161352 121.3125 126.96875 C119.4832467 127.06998043 119.4832467 127.06998043 118.5 128.25 C116.96200739 128.4141336 115.41876673 128.52936843 113.875 128.625 C109.37084017 128.97589879 105.20206595 129.75841032 100.8125 130.8125 C85.51421954 134.00029286 68.79325733 133.14980846 53.5 130.25 C52.49453125 130.07855469 51.4890625 129.90710938 50.453125 129.73046875 C37.58679816 127.09253137 26.1711878 119.94519637 16.5 111.25 C15.89027344 110.72148438 15.28054687 110.19296875 14.65234375 109.6484375 C8.90831223 104.33618967 4.76655385 97.74768752 0.5 91.25 C-0.04785156 90.44820313 -0.59570312 89.64640625 -1.16015625 88.8203125 C-8.33881804 77.7556018 -12.58670138 64.76498597 -15.17041016 51.90795898 C-16.05492116 47.59927815 -17.52447371 44.15653367 -19.5 40.25 C-19.43106736 36.25190663 -19.28686886 34.11301745 -16.5625 31.125 C-15.881875 30.50625 -15.20125 29.8875 -14.5 29.25 C-14.21125 28.404375 -13.9225 27.55875 -13.625 26.6875 C-12.5 24.25 -12.5 24.25 -9.4375 22.9375 C-6.3716075 21.6183037 -6.3716075 21.6183037 -5.88671875 19.2890625 C-5.65123706 17.28571079 -5.56610035 15.26606062 -5.5 13.25 C-3.85 12.59 -2.2 11.93 -0.5 11.25 C-0.974375 10.5075 -1.44875 9.765 -1.9375 9 C-3.28491394 6.62855147 -4.22128432 4.94425157 -4.5 2.25 C-2.5 0.25 -2.5 0.25 0 0 Z " fill="#110F02" transform="translate(28.5,3.75)"/>
<path d="M0 0 C3.3 0 6.6 0 10 0 C10 1.32 10 2.64 10 4 C9.01 4.495 9.01 4.495 8 5 C7.34227572 8.02934491 7.34227572 8.02934491 7 11 C8.65 10.67 10.3 10.34 12 10 C12.19425873 12.79134852 12.38069517 15.58283687 12.5625 18.375 C12.64661133 19.56609375 12.64661133 19.56609375 12.73242188 20.78125 C13.11328125 26.7734375 13.11328125 26.7734375 12 29 C12.66 29 13.32 29 14 29 C14.19335938 29.85722656 14.38671875 30.71445313 14.5859375 31.59765625 C15.12246574 33.95359956 15.66703906 36.30772209 16.21875 38.66015625 C16.65334118 40.51803354 17.07895065 42.37830522 17.46875 44.24609375 C18.53126642 48.83330406 20.61160944 50.83259143 24 54 C27.44436587 58.05654809 30.8686957 62.11357754 33.609375 66.68359375 C36.71256478 71.85267111 41.48544501 73.76110479 46.8203125 76 C49 77 49 77 51.8125 79 C56.53356965 81.96223978 61.69186896 83.38522875 67 85 C66.67 85.66 66.34 86.32 66 87 C61.64679734 86.61814012 58.51694187 86.23077762 54.5 84.4375 C49.51384389 82.38961445 45.43509838 82.47063079 40.125 83.625 C39.42375 83.74875 38.7225 83.8725 38 84 C37.01 83.01 37.01 83.01 36 82 C34.35008418 81.29289322 32.68437744 80.62056011 31 80 C31 78.68 31 77.36 31 76 C28.03 75.67 25.06 75.34 22 75 C21.67 74.01 21.34 73.02 21 72 C21.99 72 22.98 72 24 72 C24 72.66 24 73.32 24 74 C25.98 73.505 25.98 73.505 28 73 C23.93265026 68.40783094 19.43614072 65.7832093 14 63 C14.04125 62.21625 14.0825 61.4325 14.125 60.625 C14.28728734 57.83883881 14.28728734 57.83883881 12 56 C11.154375 55.690625 10.30875 55.38125 9.4375 55.0625 C8.2309375 54.5365625 8.2309375 54.5365625 7 54 C6.67 53.01 6.34 52.02 6 51 C6.99 50.505 6.99 50.505 8 50 C7.43923199 47.50995496 7.43923199 47.50995496 6 45 C2.97017694 43.62810173 2.97017694 43.62810173 0 43 C-0.33 43.66 -0.66 44.32 -1 45 C-2.485 44.505 -2.485 44.505 -4 44 C-4 44.66 -4 45.32 -4 46 C-8.55472973 45.46414944 -11.53180245 44.00577121 -15 41 C-15.77150428 38.99576606 -16.18450904 37.07869347 -16.57421875 34.96875 C-17.16377519 32.24272758 -18.371202 30.23959726 -20 28 C-20.66 27.67 -21.32 27.34 -22 27 C-21.34 25.68 -20.68 24.36 -20 23 C-19.01 23 -18.02 23 -17 23 C-17 25.31 -17 27.62 -17 30 C-16.34 30 -15.68 30 -15 30 C-15 28.02 -15 26.04 -15 24 C-14.01 24 -13.02 24 -12 24 C-12.33 22.35 -12.66 20.7 -13 19 C-13.37125 19.515625 -13.7425 20.03125 -14.125 20.5625 C-16 22 -16 22 -19.1875 21.6875 C-20.115625 21.460625 -21.04375 21.23375 -22 21 C-21.8125 18.625 -21.8125 18.625 -21 16 C-18.4375 14.6875 -18.4375 14.6875 -16 14 C-16.33 11.69 -16.66 9.38 -17 7 C-15.865625 6.71125 -14.73125 6.4225 -13.5625 6.125 C-12.386875 5.75375 -11.21125 5.3825 -10 5 C-9.67 4.34 -9.34 3.68 -9 3 C-6.93359375 2.5859375 -6.93359375 2.5859375 -4.4375 2.375 C-3.61121094 2.30023438 -2.78492187 2.22546875 -1.93359375 2.1484375 C-0.97646484 2.07496094 -0.97646484 2.07496094 0 2 C0 1.34 0 0.68 0 0 Z " fill="#F7EFA1" transform="translate(50,40)"/>
<path d="M0 0 C-0.33 1.98 -0.66 3.96 -1 6 C1.31 6 3.62 6 6 6 C6 6.99 6 7.98 6 9 C6.99 9 7.98 9 9 9 C8.505 7.02 8.505 7.02 8 5 C14.59666452 2.96178215 18.88887911 2.5850858 25.08203125 5.8515625 C29.49238579 8.49238579 29.49238579 8.49238579 31 10 C31 10.99 31 11.98 31 13 C29.60386935 12.85704109 28.20810692 12.71048442 26.8125 12.5625 C26.03519531 12.48128906 25.25789063 12.40007813 24.45703125 12.31640625 C21.93971527 11.99223678 19.48574876 11.50873664 17 11 C17.17172155 41.12670941 17.17172155 41.12670941 29 68 C29.52464844 68.721875 30.04929687 69.44375 30.58984375 70.1875 C40.17385809 83.05311562 52.00785864 92.59504145 68 96 C68.70769531 96.19851562 69.41539063 96.39703125 70.14453125 96.6015625 C72.45841261 97.20808851 72.45841261 97.20808851 76 97 C78.01731899 95.62149869 79.65862394 94.09117737 81.390625 92.37109375 C83 91 83 91 85.9375 90.625 C86.618125 90.74875 87.29875 90.8725 88 91 C87.39676766 94.37810112 86.09807945 96.32255812 84 99 C85.09957031 98.98839844 86.19914062 98.97679688 87.33203125 98.96484375 C95.61536634 98.90482638 103.76128653 99.00352494 112 100 C111.125 104.875 111.125 104.875 110 106 C107.9427083 106.31923492 105.88386479 106.51161352 103.8125 106.71875 C101.9832467 106.81998043 101.9832467 106.81998043 101 108 C99.46200739 108.1641336 97.91876673 108.27936843 96.375 108.375 C91.87084017 108.72589879 87.70206595 109.50841032 83.3125 110.5625 C68.02041421 113.74900204 51.28660151 112.90997956 36 110 C34.45699219 109.72542969 34.45699219 109.72542969 32.8828125 109.4453125 C24.72355346 107.72868917 18.13073214 104.19793102 11 100 C12.3125 98.5 12.3125 98.5 14 97 C14.99 97 15.98 97 17 97 C17 97.66 17 98.32 17 99 C17.9075 99.28875 18.815 99.5775 19.75 99.875 C23 101 23 101 24.9296875 102.0390625 C27.18790945 103.08721835 28.90244776 103.32648756 31.375 103.5 C34.10302016 103.69279294 36.20042224 104.07109951 38.796875 104.9921875 C42.49544195 106.15588296 46.03210678 106.44626078 49.875 106.625 C50.56335938 106.66367188 51.25171875 106.70234375 51.9609375 106.7421875 C53.64023246 106.83548166 55.32007767 106.91878238 57 107 C57 106.34 57 105.68 57 105 C56.34 105 55.68 105 55 105 C55 104.34 55 103.68 55 103 C54.37351562 102.96261719 53.74703125 102.92523438 53.1015625 102.88671875 C52.28429687 102.82097656 51.46703125 102.75523438 50.625 102.6875 C49.81289062 102.62949219 49.00078125 102.57148437 48.1640625 102.51171875 C46 102 46 102 44 99 C51.23486661 96.5883778 56.67352645 98.32282231 63.484375 101.125 C66.18575531 102.21901375 66.18575531 102.21901375 70 102 C66.31980129 100.38991306 62.67113864 98.87599284 58.875 97.5625 C55.3215892 96.26230563 52.95841245 94.36672996 50 92 C48.70042243 91.50621479 47.38605999 91.05034064 46.0625 90.625 C39.55991167 88.36749764 36.38465854 83.74963513 33 78 C28.73040582 71.28671761 28.73040582 71.28671761 23.125 65.75 C20.22791277 63.36416346 20.35986876 61.67066139 20 58 C19.649375 56.845 19.29875 55.69 18.9375 54.5 C18.03928058 51.14664749 17.8318128 48.44783751 18 45 C17.34 45 16.68 45 16 45 C15.505 45.99 15.505 45.99 15 47 C15.16371094 46.17242187 15.32742187 45.34484375 15.49609375 44.4921875 C16.0464547 40.67805811 16.11089055 36.96646499 16.0625 33.125 C16.05798828 32.43664063 16.05347656 31.74828125 16.04882812 31.0390625 C16.03716336 29.35933665 16.01923271 27.67965625 16 26 C14.35 26.33 12.7 26.66 11 27 C11 25.02 11 23.04 11 21 C11.99 20.67 12.98 20.34 14 20 C14 18.68 14 17.36 14 16 C11.36 16 8.72 16 6 16 C6 15.67 6 15.34 6 15 C12.15234375 14.12109375 12.15234375 14.12109375 14 14 C14.495 14.495 14.495 14.495 15 15 C15.33 14.01 15.66 13.02 16 12 C12.1631043 12.56127684 8.3314866 13.15300092 4.5 13.75 C2.88351563 13.98589844 2.88351563 13.98589844 1.234375 14.2265625 C-5.30711355 15.26362776 -10.17487568 16.90376275 -16 20 C-18.55425624 20.04670921 -20.49574562 19.6260636 -23 19 C-23 19.66 -23 20.32 -23 21 C-24.32 20.67 -25.64 20.34 -27 20 C-27.33 18.68 -27.66 17.36 -28 16 C-28.99 16 -29.98 16 -31 16 C-31 17.98 -31 19.96 -31 22 C-31.66 22 -32.32 22 -33 22 C-33.6875 19.6875 -33.6875 19.6875 -34 17 C-32.9375 15.25 -32.9375 15.25 -31 14 C-27.8125 13.3125 -27.8125 13.3125 -25 13 C-24.67 13.99 -24.34 14.98 -24 16 C-22.68 16 -21.36 16 -20 16 C-20 15.01 -20 14.02 -20 13 C-20.66 12.67 -21.32 12.34 -22 12 C-16 10 -10 8 -4 6 C-4.33 5.01 -4.66 4.02 -5 3 C-6.65 3.33 -8.3 3.66 -10 4 C-10 3.34 -10 2.68 -10 2 C-6.38026598 0.68373308 -3.90432869 0 0 0 Z " fill="#0F0E03" transform="translate(46,24)"/>
<path d="M0 0 C0 17.82 0 35.64 0 54 C0.99 54 1.98 54 3 54 C3.33 53.01 3.66 52.02 4 51 C5.59424195 49.60538976 7.24910662 48.27901249 8.9375 47 C11.93118472 44.72566111 13.90121241 43.14818138 16 40 C14.02 39.67 12.04 39.34 10 39 C10 38.01 10 37.02 10 36 C18.25 36 26.5 36 35 36 C35 37.32 35 38.64 35 40 C33.96552734 40.09474609 33.96552734 40.09474609 32.91015625 40.19140625 C25.62068543 41.14133729 19.89218618 43.27433024 15 49 C15 53.7252828 15.96879221 54.80525681 18.75 58.5 C19.44609375 59.4384375 20.1421875 60.376875 20.859375 61.34375 C22.92541353 64.01370131 22.92541353 64.01370131 25.265625 66.21875 C27 68 27 68 27 70 C30.63 70.99 34.26 71.98 38 73 C38.33 74.32 38.66 75.64 39 77 C36.63382832 79.36617168 31.72740501 78.95579091 28.51098633 79.0925293 C24.03047038 78.92783737 21.54650745 78.0577601 18.375 74.83203125 C13.99323142 69.618957 10.42996707 63.8685483 7 58 C4.13275314 58.57344937 3.1385485 58.8614515 1 61 C0.71937674 63.14143741 0.71937674 63.14143741 0.8125 65.5 C0.81894531 66.2940625 0.82539063 67.088125 0.83203125 67.90625 C0.87324164 70.05836391 0.87324164 70.05836391 2 72 C4.32156597 72.40729228 6.6568787 72.74438677 9 73 C9.33 74.65 9.66 76.3 10 78 C1.75 78 -6.5 78 -15 78 C-14.67 76.68 -14.34 75.36 -14 74 C-12 72.875 -12 72.875 -10 72 C-8.69239107 69.38478215 -8.88002452 67.46886599 -8.88647461 64.54052734 C-8.88655014 63.39949554 -8.88662567 62.25846375 -8.88670349 61.08285522 C-8.89186478 59.84637238 -8.89702606 58.60988953 -8.90234375 57.3359375 C-8.90446617 55.4424205 -8.90446617 55.4424205 -8.90663147 53.51065063 C-8.91128922 50.15361701 -8.92027592 46.796651 -8.93133545 43.43963623 C-8.9415623 40.01445094 -8.94613182 36.58925866 -8.95117188 33.1640625 C-8.96221762 26.44268957 -8.97896806 19.72134869 -9 13 C-12.465 11.02 -12.465 11.02 -16 9 C-15.796875 7.171875 -15.796875 7.171875 -15 5 C-12.890625 3.515625 -12.890625 3.515625 -10.25 2.25 C-8.95835937 1.60804687 -8.95835937 1.60804687 -7.640625 0.953125 C-5 0 -5 0 0 0 Z " fill="#0D0C02" transform="translate(308,8)"/>
<path d="M0 0 C16.17 0 32.34 0 49 0 C48.67 4.95 48.34 9.9 48 15 C46.68 14.67 45.36 14.34 44 14 C43.30341637 12.34561387 42.63903117 10.67745682 42 9 C39.05939543 6.25907117 36.99311086 5.60954606 33.015625 5.48828125 C32.17290039 5.45516846 31.33017578 5.42205566 30.46191406 5.38793945 C29.40198242 5.36304443 28.34205078 5.33814941 27.25 5.3125 C23.8675 5.209375 20.485 5.10625 17 5 C17 14.24 17 23.48 17 33 C22.61 33 28.22 33 34 33 C34.66 30.36 35.32 27.72 36 25 C37.32 25 38.64 25 40 25 C39.67 32.26 39.34 39.52 39 47 C38.01 47 37.02 47 36 47 C35.525625 45.865625 35.05125 44.73125 34.5625 43.5625 C33.36377917 40.24259834 33.36377917 40.24259834 32 39 C29.47403741 38.76346477 26.96892793 38.57826308 24.4375 38.4375 C23.72658203 38.39431641 23.01566406 38.35113281 22.28320312 38.30664062 C20.52238088 38.20028223 18.7612168 38.09961154 17 38 C17.10944715 42.45885926 17.24017666 46.91684156 17.375 51.375 C17.4059375 52.64601562 17.436875 53.91703125 17.46875 55.2265625 C17.50742188 56.43828125 17.54609375 57.65 17.5859375 58.8984375 C17.63306885 60.57945557 17.63306885 60.57945557 17.68115234 62.29443359 C17.73411203 65.14710412 17.73411203 65.14710412 20 67 C22.32275177 67.40047444 24.65739357 67.7397104 27 68 C27.33 68.99 27.66 69.98 28 71 C18.76 71 9.52 71 0 71 C0 70.01 0 69.02 0 68 C0.804375 67.690625 1.60875 67.38125 2.4375 67.0625 C4.89080405 66.23664655 4.89080405 66.23664655 6 65 C6.12515857 63.21160089 6.18073088 61.41828689 6.20874023 59.62573242 C6.22803085 58.47751511 6.24732147 57.32929779 6.26719666 56.14628601 C6.32464552 50.88557486 6.37453155 45.62494919 6.4050293 40.36401367 C6.42283841 37.58457232 6.4576434 34.80614646 6.50756836 32.02709961 C6.5792579 28.03222326 6.60198671 24.03844827 6.62109375 20.04296875 C6.64892441 18.79807175 6.67675507 17.55317474 6.70542908 16.27055359 C6.98617972 10.43427552 6.98617972 10.43427552 4.62210083 5.41177368 C2.79637401 4.22105501 2.79637401 4.22105501 0 3 C0 2.01 0 1.02 0 0 Z " fill="#141202" transform="translate(108,14)"/>
<path d="M0 0 C2.5 0.25 2.5 0.25 4.5 2.25 C4.125 5.875 4.125 5.875 3.5 9.25 C6.47 9.25 9.44 9.25 12.5 9.25 C12.7475 10.425625 12.7475 10.425625 13 11.625 C14.18500451 14.36778379 14.18500451 14.36778379 16.34375 14.88671875 C17.78629828 15.17156977 19.23035759 15.44886838 20.67578125 15.71875 C22.5 16.25 22.5 16.25 23.6875 18.3125 C23.955625 18.951875 24.22375 19.59125 24.5 20.25 C26.15614657 20.63218767 27.82457024 20.96395102 29.5 21.25 C31.3125 22.8125 31.3125 22.8125 32.5 24.25 C30.52 24.91 28.54 25.57 26.5 26.25 C26.5 27.24 26.5 28.23 26.5 29.25 C25.51 29.25 24.52 29.25 23.5 29.25 C23.5 28.26 23.5 27.27 23.5 26.25 C21.19 26.25 18.88 26.25 16.5 26.25 C16.83 24.27 17.16 22.29 17.5 20.25 C14.2 20.91 10.9 21.57 7.5 22.25 C7.5 22.91 7.5 23.57 7.5 24.25 C9.15 23.92 10.8 23.59 12.5 23.25 C13.16 24.57 13.82 25.89 14.5 27.25 C12.43847611 27.89894237 10.37573742 28.5440264 8.3125 29.1875 C7.16394531 29.54714844 6.01539062 29.90679687 4.83203125 30.27734375 C2.05646994 31.08756036 -0.65687548 31.74134307 -3.5 32.25 C-2.84 33.9 -2.18 35.55 -1.5 37.25 C-3.15 37.25 -4.8 37.25 -6.5 37.25 C-6.83 35.93 -7.16 34.61 -7.5 33.25 C-11.01202512 34.45728609 -11.01202512 34.45728609 -14.5 36.25 C-15.51627502 38.48580504 -15.5 39.82805923 -15.5 42.25 C-14.84 42.25 -14.18 42.25 -13.5 42.25 C-13.5 40.27 -13.5 38.29 -13.5 36.25 C-12.51 36.25 -11.52 36.25 -10.5 36.25 C-10.231875 36.889375 -9.96375 37.52875 -9.6875 38.1875 C-8.61332248 40.58131686 -8.61332248 40.58131686 -5.5 41.25 C-5.5 40.59 -5.5 39.93 -5.5 39.25 C-4.51 39.3325 -3.52 39.415 -2.5 39.5 C0.62046665 39.51553244 2.42865152 38.90953296 5.109375 37.34375 C9.85339524 34.86621951 14.48404025 34.16410472 19.75 33.5 C20.63429687 33.37496094 21.51859375 33.24992187 22.4296875 33.12109375 C26.18395252 32.60502409 29.69828897 32.25 33.5 32.25 C33.17 33.57 32.84 34.89 32.5 36.25 C31.51 35.92 30.52 35.59 29.5 35.25 C27.43381251 35.34268505 27.43381251 35.34268505 25.3125 35.6875 C24.054375 35.873125 22.79625 36.05875 21.5 36.25 C21.83 37.24 22.16 38.23 22.5 39.25 C19.2 39.25 15.9 39.25 12.5 39.25 C12.17 40.24 11.84 41.23 11.5 42.25 C7.06971812 43.90049717 3.20949382 44.47973141 -1.5 44.25 C-1.83 45.57 -2.16 46.89 -2.5 48.25 C-2.83 47.59 -3.16 46.93 -3.5 46.25 C-4.16 46.25 -4.82 46.25 -5.5 46.25 C-5.15555119 48.72266765 -5.15555119 48.72266765 -4.5 51.25 C-3.84 51.58 -3.18 51.91 -2.5 52.25 C-3.82 52.25 -5.14 52.25 -6.5 52.25 C-6.396875 53.178125 -6.29375 54.10625 -6.1875 55.0625 C-6.290625 56.114375 -6.39375 57.16625 -6.5 58.25 C-9 60.125 -9 60.125 -11.5 61.25 C-11.17 59.93 -10.84 58.61 -10.5 57.25 C-9.84 57.25 -9.18 57.25 -8.5 57.25 C-9.49 56.26 -10.48 55.27 -11.5 54.25 C-11.5 55.24 -11.5 56.23 -11.5 57.25 C-12.16 57.25 -12.82 57.25 -13.5 57.25 C-13.84933594 56.10660156 -14.19867188 54.96320312 -14.55859375 53.78515625 C-15.01806463 52.29422012 -15.47770901 50.80333745 -15.9375 49.3125 C-16.16759766 48.55775391 -16.39769531 47.80300781 -16.63476562 47.02539062 C-17.53001736 43.34791548 -17.53001736 43.34791548 -19.5 40.25 C-19.19992487 34.94867269 -18.37662342 32.77420311 -14.5 29.25 C-14.21125 28.404375 -13.9225 27.55875 -13.625 26.6875 C-12.5 24.25 -12.5 24.25 -9.4375 22.9375 C-6.3716075 21.6183037 -6.3716075 21.6183037 -5.88671875 19.2890625 C-5.65123706 17.28571079 -5.56610035 15.26606062 -5.5 13.25 C-3.85 12.59 -2.2 11.93 -0.5 11.25 C-0.974375 10.5075 -1.44875 9.765 -1.9375 9 C-3.28491394 6.62855147 -4.22128432 4.94425157 -4.5 2.25 C-2.5 0.25 -2.5 0.25 0 0 Z " fill="#090801" transform="translate(28.5,3.75)"/>
<path d="M0 0 C1.85609562 1.22404387 3.55407209 2.56188459 5.12890625 4.13671875 C5.216816 6.42823292 5.23584663 8.72244399 5.2265625 11.015625 C5.22514755 11.70228745 5.2237326 12.38894989 5.22227478 13.09642029 C5.21666104 15.29739676 5.20410632 17.49827284 5.19140625 19.69921875 C5.18639301 21.18814958 5.1818298 22.67708199 5.17773438 24.16601562 C5.16668718 27.8229495 5.14941338 31.47982433 5.12890625 35.13671875 C8.09890625 35.13671875 11.06890625 35.13671875 14.12890625 35.13671875 C13.79890625 36.45671875 13.46890625 37.77671875 13.12890625 39.13671875 C10.06640625 40.38671875 10.06640625 40.38671875 7.12890625 41.13671875 C7.12890625 41.79671875 7.12890625 42.45671875 7.12890625 43.13671875 C4.31640625 43.32421875 4.31640625 43.32421875 1.12890625 43.13671875 C0.66484375 42.63140625 0.20078125 42.12609375 -0.27734375 41.60546875 C-1.78741243 39.89297439 -1.78741243 39.89297439 -4.1328125 40.0625 C-5.33357422 40.25392578 -5.33357422 40.25392578 -6.55859375 40.44921875 C-7.36683594 40.56910156 -8.17507812 40.68898437 -9.0078125 40.8125 C-9.62269531 40.91949219 -10.23757812 41.02648437 -10.87109375 41.13671875 C-10.87109375 41.79671875 -10.87109375 42.45671875 -10.87109375 43.13671875 C-21.20403937 44.19007728 -21.20403937 44.19007728 -25.00390625 41.7890625 C-27.58660556 38.95058862 -28.74036189 36.79037803 -29.49609375 33.01171875 C-28.53199022 28.57684252 -26.38917158 26.19444084 -22.70703125 23.62890625 C-19.31454119 21.84387705 -15.87899035 20.87037969 -12.18359375 19.94921875 C-11.50748047 19.77197266 -10.83136719 19.59472656 -10.13476562 19.41210938 C-5.18585606 18.13671875 -5.18585606 18.13671875 -2.87109375 18.13671875 C-3.0882004 12.01024805 -3.0882004 12.01024805 -5.62109375 6.57421875 C-8.27124404 4.88106717 -9.78309388 4.79360765 -12.87109375 5.13671875 C-13.21140625 6.00296875 -13.21140625 6.00296875 -13.55859375 6.88671875 C-15.25813922 9.80022527 -17.05016573 11.29983539 -19.87109375 13.13671875 C-22.62109375 13.44921875 -22.62109375 13.44921875 -24.87109375 13.13671875 C-25.87109375 12.13671875 -25.87109375 12.13671875 -26.24609375 9.82421875 C-25.87109375 7.13671875 -25.87109375 7.13671875 -23.55859375 4.94921875 C-16.91800734 0.47068373 -8.00038973 -3.69120278 0 0 Z " fill="#161403" transform="translate(228.87109375,42.86328125)"/>
<path d="M0 0 C0.01213028 1.30545525 0.01213028 1.30545525 0.02450562 2.63728333 C0.10240024 10.83336951 0.18967531 19.02929028 0.28752708 27.22516346 C0.33750348 31.43889375 0.38383331 35.6525988 0.421875 39.86645508 C0.45871097 43.93197602 0.50506614 47.99728652 0.55806351 52.06262779 C0.57661648 53.61474611 0.59172111 55.16690955 0.60334396 56.71909523 C0.62019123 58.89083089 0.64922166 61.06208367 0.68115234 63.23364258 C0.69447601 64.47052322 0.70779968 65.70740387 0.7215271 66.98176575 C0.77498799 70.17805223 0.77498799 70.17805223 3 73 C6.55672179 74.2188121 6.55672179 74.2188121 10 75 C9.67 75.99 9.34 76.98 9 78 C1.08 78 -6.84 78 -15 78 C-14 74 -14 74 -11.9375 72.75 C-11.298125 72.5025 -10.65875 72.255 -10 72 C-9.86091516 64.37672096 -9.754337 56.75357359 -9.68912697 49.12931442 C-9.65782658 45.58884589 -9.61538264 42.04924593 -9.54736328 38.50927734 C-9.46963303 34.43839236 -9.44057215 30.36841801 -9.4140625 26.296875 C-9.36761093 24.39201324 -9.36761093 24.39201324 -9.32022095 22.44866943 C-9.04430426 16.490223 -9.04430426 16.490223 -11.37567139 11.29064941 C-13.16587743 9.99437486 -13.16587743 9.99437486 -16 9 C-15.77734375 7.13671875 -15.77734375 7.13671875 -15 5 C-13.00390625 3.76953125 -13.00390625 3.76953125 -10.5625 2.8125 C-9.75941406 2.48894531 -8.95632812 2.16539063 -8.12890625 1.83203125 C-7.42636719 1.55746094 -6.72382813 1.28289063 -6 1 C-4 0 -4 0 0 0 Z " fill="#1A1803" transform="translate(183,8)"/>
<path d="M0 0 C1.66869141 -0.02126953 1.66869141 -0.02126953 3.37109375 -0.04296875 C6.63277062 0.19257462 8.75910914 0.49840659 11.5625 2.1875 C12.48828125 4.5703125 12.48828125 4.5703125 12.875 7.3125 C13.01550781 8.22257812 13.15601563 9.13265625 13.30078125 10.0703125 C13.38714844 10.76898438 13.47351563 11.46765625 13.5625 12.1875 C12.2425 12.5175 10.9225 12.8475 9.5625 13.1875 C8.964375 12.40375 8.36625 11.62 7.75 10.8125 C4.83635638 7.31072909 4.83635638 7.31072909 0.625 5.95703125 C-0.055625 5.97121094 -0.73625 5.98539063 -1.4375 6 C-2.4584375 6.00966797 -2.4584375 6.00966797 -3.5 6.01953125 C-5.65508209 6.13052254 -5.65508209 6.13052254 -8.4375 7.1875 C-9.10904684 9.47091743 -9.10904684 9.47091743 -8.4375 12.1875 C-4.63081519 15.5677529 0.25645151 17.52439093 4.8125 19.6875 C8.75807746 21.65421861 11.52519333 23.11288666 13.5625 27.1875 C14.52785162 31.34409666 14.21740506 34.60524937 12.5859375 38.546875 C10.78016573 41.27001746 9.43932409 42.59489694 6.5625 44.1875 C-1.42538662 45.76027664 -9.79495326 44.76784439 -17.4375 42.1875 C-18.4375 41.1875 -18.4375 41.1875 -18.53515625 38.90234375 C-18.52355469 37.98582031 -18.51195312 37.06929687 -18.5 36.125 C-18.49097656 35.20589844 -18.48195312 34.28679687 -18.47265625 33.33984375 C-18.46105469 32.62957031 -18.44945312 31.91929688 -18.4375 31.1875 C-14.20473665 31.9667535 -12.99934064 33.77171248 -10.4375 37.1875 C-7.69244537 38.56002731 -5.43422588 38.31979255 -2.375 38.3125 C-1.29089844 38.31507812 -0.20679688 38.31765625 0.91015625 38.3203125 C3.48493398 38.48868564 3.48493398 38.48868564 4.5625 37.1875 C5.14692963 34.31512267 5.14692963 34.31512267 4.5625 31.1875 C1.46223619 28.47476917 -1.65843564 27.06210927 -5.5 25.75 C-9.43507989 24.38062229 -11.68155893 22.34872652 -14.4375 19.1875 C-15.0975 18.5275 -15.7575 17.8675 -16.4375 17.1875 C-17.20816078 13.06742891 -17.48144086 8.88559861 -15.234375 5.23046875 C-10.57683406 0.3965058 -6.60573688 0.03818345 0 0 Z " fill="#171604" transform="translate(269.4375,41.8125)"/>
<path d="M0 0 C2.5 0.25 2.5 0.25 4.5 2.25 C4.125 5.875 4.125 5.875 3.5 9.25 C6.47 9.25 9.44 9.25 12.5 9.25 C12.7475 10.425625 12.7475 10.425625 13 11.625 C14.18500451 14.36778379 14.18500451 14.36778379 16.34375 14.88671875 C17.78629828 15.17156977 19.23035759 15.44886838 20.67578125 15.71875 C22.5 16.25 22.5 16.25 23.6875 18.3125 C23.955625 18.951875 24.22375 19.59125 24.5 20.25 C26.15614657 20.63218767 27.82457024 20.96395102 29.5 21.25 C31.3125 22.8125 31.3125 22.8125 32.5 24.25 C30.52 24.91 28.54 25.57 26.5 26.25 C26.5 27.24 26.5 28.23 26.5 29.25 C25.51 29.25 24.52 29.25 23.5 29.25 C23.5 28.26 23.5 27.27 23.5 26.25 C21.19 26.25 18.88 26.25 16.5 26.25 C16.83 24.27 17.16 22.29 17.5 20.25 C14.2 20.91 10.9 21.57 7.5 22.25 C7.5 22.91 7.5 23.57 7.5 24.25 C5.12592408 24.89939736 2.7508361 25.54460053 0.375 26.1875 C-0.29015625 26.36990234 -0.9553125 26.55230469 -1.640625 26.74023438 C-5.57445227 27.80082506 -9.46973565 28.65362132 -13.5 29.25 C-13.375 26.9375 -13.375 26.9375 -12.5 24.25 C-11.51 23.816875 -10.52 23.38375 -9.5 22.9375 C-6.3736027 21.62923232 -6.3736027 21.62923232 -5.8828125 19.2890625 C-5.65080814 17.28538846 -5.56609764 15.26597788 -5.5 13.25 C-3.85 12.59 -2.2 11.93 -0.5 11.25 C-0.974375 10.5075 -1.44875 9.765 -1.9375 9 C-3.28491394 6.62855147 -4.22128432 4.94425157 -4.5 2.25 C-2.5 0.25 -2.5 0.25 0 0 Z " fill="#1C1A03" transform="translate(28.5,3.75)"/>
<path d="M0 0 C-0.99 0 -1.98 0 -3 0 C-3 0.99 -3 1.98 -3 3 C-1.02 3 0.96 3 3 3 C3 6.96 3 10.92 3 15 C2.34 15 1.68 15 1 15 C0.67 16.65 0.34 18.3 0 20 C-1.65 20.33 -3.3 20.66 -5 21 C-5 21.66 -5 22.32 -5 23 C-15.33294562 24.05335853 -15.33294562 24.05335853 -19.1328125 21.65234375 C-21.71551181 18.81386987 -22.86926814 16.65365928 -23.625 12.875 C-22.65577718 8.41657502 -20.44147615 6.10230529 -16.875 3.375 C-5.72597037 -1.95714461 -5.72597037 -1.95714461 0 0 Z " fill="#191706" transform="translate(223,63)"/>
<path d="M0 0 C4.31902671 0.35991889 5.77034973 1.24521296 8.75 4.3125 C9.08 5.3025 9.41 6.2925 9.75 7.3125 C8.1 7.3125 6.45 7.3125 4.75 7.3125 C4.75 6.6525 4.75 5.9925 4.75 5.3125 C3.76 5.3125 2.77 5.3125 1.75 5.3125 C2.08 5.9725 2.41 6.6325 2.75 7.3125 C4.86846285 7.99979254 4.86846285 7.99979254 7.3125 8.4375 C8.13878906 8.60507813 8.96507813 8.77265625 9.81640625 8.9453125 C10.45449219 9.06648438 11.09257813 9.18765625 11.75 9.3125 C11.87246094 9.951875 11.99492188 10.59125 12.12109375 11.25 C12.32863281 11.930625 12.53617188 12.61125 12.75 13.3125 C14.91621868 14.4150173 14.91621868 14.4150173 17.75 15.3125 C19.06865993 15.98810972 20.38077827 16.67657977 21.6875 17.375 C25.02224001 19.07717279 27.99173116 19.93667312 31.75 20.3125 C31.75 20.9725 31.75 21.6325 31.75 22.3125 C32.41 22.3125 33.07 22.3125 33.75 22.3125 C33.75 22.9725 33.75 23.6325 33.75 24.3125 C18.70972857 24.84752942 18.70972857 24.84752942 11.5859375 21.9609375 C9.61216681 21.13550989 9.61216681 21.13550989 6.8125 21.4375 C1.89724912 21.23687752 -2.00585093 18.66104099 -6.25 16.3125 C-6.25 15.6525 -6.25 14.9925 -6.25 14.3125 C-7.57 14.6425 -8.89 14.9725 -10.25 15.3125 C-10.10950482 13.83281676 -9.96245174 12.35375484 -9.8125 10.875 C-9.73128906 10.05128906 -9.65007813 9.22757813 -9.56640625 8.37890625 C-9.25 6.3125 -9.25 6.3125 -8.25 5.3125 C-8.91 4.9825 -9.57 4.6525 -10.25 4.3125 C-10.25 3.6525 -10.25 2.9925 -10.25 2.3125 C-8.93 1.9825 -7.61 1.6525 -6.25 1.3125 C-5.92 1.9725 -5.59 2.6325 -5.25 3.3125 C-4.26 3.6425 -3.27 3.9725 -2.25 4.3125 C-2.25 3.6525 -2.25 2.9925 -2.25 2.3125 C-2.91 1.9825 -3.57 1.6525 -4.25 1.3125 C-3.25 0.3125 -3.25 0.3125 0 0 Z " fill="#181602" transform="translate(69.25,106.6875)"/>
<path d="M0 0 C-0.33 1.98 -0.66 3.96 -1 6 C1.31 6 3.62 6 6 6 C6 6.99 6 7.98 6 9 C6.99 9 7.98 9 9 9 C8.505 7.02 8.505 7.02 8 5 C11.3 5 14.6 5 18 5 C17.9375 7.3125 17.9375 7.3125 17 10 C11.10439823 13.10133218 5.29976227 13.90200205 -1.24023438 14.72851562 C-6.14312891 15.43610672 -9.89255358 16.69266517 -14.17797852 19.2043457 C-17.31756289 20.57536345 -19.75187472 19.81203132 -23 19 C-23 19.66 -23 20.32 -23 21 C-24.32 20.67 -25.64 20.34 -27 20 C-27.33 18.68 -27.66 17.36 -28 16 C-28.99 16 -29.98 16 -31 16 C-31 17.98 -31 19.96 -31 22 C-31.66 22 -32.32 22 -33 22 C-33.6875 19.6875 -33.6875 19.6875 -34 17 C-32.9375 15.25 -32.9375 15.25 -31 14 C-27.8125 13.3125 -27.8125 13.3125 -25 13 C-24.67 13.99 -24.34 14.98 -24 16 C-22.68 16 -21.36 16 -20 16 C-20 15.01 -20 14.02 -20 13 C-20.66 12.67 -21.32 12.34 -22 12 C-16 10 -10 8 -4 6 C-4.33 5.01 -4.66 4.02 -5 3 C-6.65 3.33 -8.3 3.66 -10 4 C-10 3.34 -10 2.68 -10 2 C-6.38026598 0.68373308 -3.90432869 0 0 0 Z " fill="#E2D973" transform="translate(46,24)"/>
<path d="M0 0 C2.375 2.3125 2.375 2.3125 4 5 C3.67 5.99 3.34 6.98 3 8 C2.34 8 1.68 8 1 8 C3.25987714 11.38981571 4.33531169 11.62574188 8 13 C8.66 13.66 9.32 14.32 10 15 C9.625 17.625 9.625 17.625 9 20 C10.423125 20.433125 10.423125 20.433125 11.875 20.875 C15 22 15 22 17 24 C15.02 24.33 13.04 24.66 11 25 C11.33 25.99 11.66 26.98 12 28 C10.68 27.67 9.36 27.34 8 27 C8 26.34 8 25.68 8 25 C7.24074219 25.02320312 6.48148438 25.04640625 5.69921875 25.0703125 C4.70535156 25.08835937 3.71148437 25.10640625 2.6875 25.125 C1.20830078 25.15980469 1.20830078 25.15980469 -0.30078125 25.1953125 C-3 25 -3 25 -6 23 C-6 22.34 -6 21.68 -6 21 C-4.35 21 -2.7 21 -1 21 C-1.57944932 19.00136244 -1.57944932 19.00136244 -3 17 C-3.969375 16.71125 -4.93875 16.4225 -5.9375 16.125 C-9 15 -9 15 -10.9375 12.25 C-12.11510231 8.64792235 -11.94976786 6.62638638 -11 3 C-10.34 3 -9.68 3 -9 3 C-9 2.34 -9 1.68 -9 1 C-5.90270517 0.08228301 -3.21602861 -0.48240429 0 0 Z " fill="#0B0A01" transform="translate(55,83)"/>
<path d="M0 0 C0.99 0.33 1.98 0.66 3 1 C3 1.66 3 2.32 3 3 C2.01 3.495 2.01 3.495 1 4 C1.33 4.33 1.66 4.66 2 5 C2.66 5 3.32 5 4 5 C4.81822733 7.37316118 5.62968707 9.7482942 6.4375 12.125 C6.78264648 13.12273437 6.78264648 13.12273437 7.13476562 14.140625 C8.16145695 17.17606021 8.98967568 19.92309825 9.41796875 23.11328125 C10.15635201 26.77546398 11.73055667 29.01864729 13.875 32.0625 C17.90293846 37.83686934 17.90293846 37.83686934 19.578125 40.65234375 C21.67694286 44.11769961 24.29478949 46.99955078 27 50 C28.2375 51.3921875 28.2375 51.3921875 29.5 52.8125 C32.24907096 55.21793709 34.48779947 56.1015301 38 57 C38 58.32 38 59.64 38 61 C36.29296875 61.734375 36.29296875 61.734375 34 62 C18.93831945 52.11495922 8.55614441 33.96065309 1.875 17.625 C1.56739746 16.90046631 1.25979492 16.17593262 0.94287109 15.42944336 C-1.15214466 9.99863226 -1.09231754 5.68838953 0 0 Z " fill="#433E0B" transform="translate(17,58)"/>
<path d="M0 0 C0.66 1.32 1.32 2.64 2 4 C-0.06152389 4.64894237 -2.12426258 5.2940264 -4.1875 5.9375 C-5.33605469 6.29714844 -6.48460938 6.65679687 -7.66796875 7.02734375 C-10.44353006 7.83756036 -13.15687548 8.49134307 -16 9 C-15.34 10.65 -14.68 12.3 -14 14 C-15.65 14 -17.3 14 -19 14 C-19.33 12.68 -19.66 11.36 -20 10 C-23.51202512 11.20728609 -23.51202512 11.20728609 -27 13 C-28.01627502 15.23580504 -28 16.57805923 -28 19 C-27.34 19 -26.68 19 -26 19 C-26 17.02 -26 15.04 -26 13 C-25.01 13 -24.02 13 -23 13 C-21.9375 15.375 -21.9375 15.375 -21 18 C-21.33 18.66 -21.66 19.32 -22 20 C-23.98 20 -25.96 20 -28 20 C-28.33 20.99 -28.66 21.98 -29 23 C-31.10718184 19.54422178 -32.00804219 17.4664468 -31.9375 13.375 C-30.86190145 9.50284523 -30.10935891 8.47661178 -27 6 C-24.31585806 4.84688355 -21.56681337 4.07426431 -18.75 3.3125 C-17.66138672 2.99442383 -17.66138672 2.99442383 -16.55078125 2.66992188 C-11.12524671 1.13703912 -5.66706473 0 0 0 Z " fill="#141303" transform="translate(41,27)"/>
<path d="M0 0 C1.30710937 0.61294922 1.30710937 0.61294922 2.640625 1.23828125 C4.75 2.6875 4.75 2.6875 5.546875 4.85546875 C5.64742187 5.76232422 5.64742187 5.76232422 5.75 6.6875 C4.35386935 6.54454109 2.95810692 6.39798442 1.5625 6.25 C0.78519531 6.16878906 0.00789063 6.08757813 -0.79296875 6.00390625 C-3.31028473 5.67973678 -5.76425124 5.19623664 -8.25 4.6875 C-8.03489941 9.00766214 -7.80421403 13.32665498 -7.56030273 17.64526367 C-7.47972815 19.10826096 -7.40309709 20.57148189 -7.33081055 22.03491211 C-6.89765675 30.74279706 -6.05124428 38.79247563 -3.66918945 47.23950195 C-3.53085693 48.04734131 -3.39252441 48.85518066 -3.25 49.6875 C-3.91 50.3475 -4.57 51.0075 -5.25 51.6875 C-6.70184478 47.15048506 -7.48509196 43.50688524 -7.25 38.6875 C-7.91 38.6875 -8.57 38.6875 -9.25 38.6875 C-9.58 39.3475 -9.91 40.0075 -10.25 40.6875 C-10.08628906 39.85992187 -9.92257813 39.03234375 -9.75390625 38.1796875 C-9.2035453 34.36555811 -9.13910945 30.65396499 -9.1875 26.8125 C-9.19201172 26.12414062 -9.19652344 25.43578125 -9.20117188 24.7265625 C-9.21283664 23.04683665 -9.23076729 21.36715625 -9.25 19.6875 C-10.9 20.0175 -12.55 20.3475 -14.25 20.6875 C-14.25 18.7075 -14.25 16.7275 -14.25 14.6875 C-13.26 14.3575 -12.27 14.0275 -11.25 13.6875 C-11.25 12.3675 -11.25 11.0475 -11.25 9.6875 C-13.89 9.6875 -16.53 9.6875 -19.25 9.6875 C-19.25 9.3575 -19.25 9.0275 -19.25 8.6875 C-13.09765625 7.80859375 -13.09765625 7.80859375 -11.25 7.6875 C-10.92 8.0175 -10.59 8.3475 -10.25 8.6875 C-9.92 7.6975 -9.59 6.7075 -9.25 5.6875 C-11.23 6.0175 -13.21 6.3475 -15.25 6.6875 C-14.92 6.0275 -14.59 5.3675 -14.25 4.6875 C-13.26 4.39875 -12.27 4.11 -11.25 3.8125 C-10.26 3.44125 -9.27 3.07 -8.25 2.6875 C-7.28122943 0.65506452 -7.28122943 0.65506452 -7.25 -1.3125 C-9.89 -1.3125 -12.53 -1.3125 -15.25 -1.3125 C-15.25 -1.6425 -15.25 -1.9725 -15.25 -2.3125 C-9.41642205 -3.8125629 -5.34133258 -2.58271021 0 0 Z " fill="#9B912A" transform="translate(71.25,30.3125)"/>
<path d="M0 0 C0 0.66 0 1.32 0 2 C0.9075 2.28875 1.815 2.5775 2.75 2.875 C6 4 6 4 7.9296875 5.0390625 C10.18790945 6.08721835 11.90244776 6.32648756 14.375 6.5 C18.15900575 6.84400052 21.43397671 7.62845258 25 9 C25 9.66 25 10.32 25 11 C25.87140625 10.98839844 26.7428125 10.97679687 27.640625 10.96484375 C35.48903438 10.9053861 43.1924235 11.19922292 51 12 C50.67 12.66 50.34 13.32 50 14 C47.58554738 14.38090601 45.30703057 14.61607513 42.875 14.75 C41.79943848 14.8113916 41.79943848 14.8113916 40.70214844 14.87402344 C33.32140884 15.18816637 26.25922021 14.34400197 19 13 C17.96101563 12.81566406 16.92203125 12.63132813 15.8515625 12.44140625 C7.70642166 10.7204513 1.12008583 7.19166343 -6 3 C-3.375 0 -3.375 0 0 0 Z " fill="#94891C" transform="translate(63,121)"/>
<path d="M0 0 C0 3.96 0 7.92 0 12 C-3.77696692 13.88848346 -5.11884771 14.27391733 -9.125 14.25 C-10.42824219 14.25773437 -10.42824219 14.25773437 -11.7578125 14.265625 C-14 14 -14 14 -16 12 C-16.375 8.5625 -16.375 8.5625 -16 5 C-11.62318961 0.29898143 -6.13632839 -0.24064033 0 0 Z " fill="#F1E99B" transform="translate(226,66)"/>
<path d="M0 0 C0.66 0 1.32 0 2 0 C2 4.62 2 9.24 2 14 C2.66 14 3.32 14 4 14 C4.12375 13.21625 4.2475 12.4325 4.375 11.625 C5 9 5 9 7 7 C9.5 6.75 9.5 6.75 12 7 C12.66 7.66 13.32 8.32 14 9 C13.44444444 13.55555556 13.44444444 13.55555556 12 15 C3.94049287 16.0960044 -3.18101695 16.2917709 -11 14 C-10.67 11.69 -10.34 9.38 -10 7 C-7.6875 6.3125 -7.6875 6.3125 -5 6 C-3.1875 7.125 -3.1875 7.125 -2 9 C-1.8125 11.6875 -1.8125 11.6875 -2 14 C-1.34 14 -0.68 14 0 14 C-0.08378906 13.07316406 -0.16757812 12.14632812 -0.25390625 11.19140625 C-0.35574219 9.99386719 -0.45757812 8.79632813 -0.5625 7.5625 C-0.71912109 5.77005859 -0.71912109 5.77005859 -0.87890625 3.94140625 C-0.91886719 2.97074219 -0.95882813 2.00007813 -1 1 C-0.67 0.67 -0.34 0.34 0 0 Z " fill="#DED56E" transform="translate(271,95)"/>
<path d="M0 0 C0.66 0 1.32 0 2 0 C2 2.31 2 4.62 2 7 C2.804375 6.979375 3.60875 6.95875 4.4375 6.9375 C7 7 7 7 8 8 C8.125 11 8.125 11 8 14 C6.17883997 15.82116003 3.69328236 15.1323508 1.2734375 15.13671875 C0.52320313 15.13285156 -0.22703125 15.12898438 -1 15.125 C-2.12535156 15.13080078 -2.12535156 15.13080078 -3.2734375 15.13671875 C-8.87338947 15.12661053 -8.87338947 15.12661053 -10 14 C-10.1875 11.0625 -10.1875 11.0625 -10 8 C-9.34 7.34 -8.68 6.68 -8 6 C-4.875 6.375 -4.875 6.375 -2 7 C-1.67 8.65 -1.34 10.3 -1 12 C-1.01160156 11.21753906 -1.02320313 10.43507813 -1.03515625 9.62890625 C-1.04417969 8.61699219 -1.05320313 7.60507813 -1.0625 6.5625 C-1.07410156 5.55316406 -1.08570313 4.54382813 -1.09765625 3.50390625 C-1 1 -1 1 0 0 Z " fill="#E5DC6B" transform="translate(212,95)"/>
<path d="M0 0 C2.68483956 1.34241978 2.9102625 2.71495895 4.125 5.4375 C6.9923072 11.33187639 10.69345841 16.08747226 15 21 C15.59425781 21.70125 16.18851563 22.4025 16.80078125 23.125 C23.50825386 30.47880295 32.72841423 35.54279853 42 39 C42 39.99 42 40.98 42 42 C37.10056426 41.6415047 34.59695675 40.15294 30.85546875 37.25390625 C28.90652 35.9368272 27.17162987 35.27316607 24.9375 34.5625 C18.50064595 32.35450937 15.34014732 27.67402241 12 22 C7.76545529 15.26928402 7.76545529 15.26928402 2.0625 9.875 C0 8 0 8 -0.3046875 5.9921875 C-0.31165602 3.99222338 -0.16608899 1.99306786 0 0 Z " fill="#373208" transform="translate(67,80)"/>
<path d="M0 0 C3.3 0 6.6 0 10 0 C9.9375 2.3125 9.9375 2.3125 9 5 C2.64017238 8.35990893 -2.66452365 9.14956162 -9.75 9.0625 C-10.44738281 9.05798828 -11.14476562 9.05347656 -11.86328125 9.04882812 C-13.57555803 9.0371002 -15.28779033 9.01916653 -17 9 C-16.67 8.01 -16.34 7.02 -16 6 C-13.29120665 4.64560332 -10.99066732 4.93498549 -8 5 C-8 3.68 -8 2.36 -8 1 C-6.02 1 -4.04 1 -2 1 C-2 1.99 -2 2.98 -2 4 C-1.01 4 -0.02 4 1 4 C0.67 2.68 0.34 1.36 0 0 Z " fill="#F0E998" transform="translate(54,29)"/>
<path d="M0 0 C0.66 0.33 1.32 0.66 2 1 C2 0.34 2 -0.32 2 -1 C5.3 -1 8.6 -1 12 -1 C11.5206753 3.31392226 10.2542015 5.16569547 7 8 C5.35 6.68 3.7 5.36 2 4 C2 5.32 2 6.64 2 8 C-0.31 8.33 -2.62 8.66 -5 9 C-7 6 -7 6 -6.75 2.875 C-6.37875 1.451875 -6.37875 1.451875 -6 0 C-3.4832097 -1.25839515 -2.62168527 -0.81927665 0 0 Z " fill="#D8D06E" transform="translate(246,102)"/>
<path d="M0 0 C0.82757813 0.42925781 0.82757813 0.42925781 1.671875 0.8671875 C0.8675 1.3415625 0.063125 1.8159375 -0.765625 2.3046875 C-3.17565988 3.63618904 -3.17565988 3.63618904 -4.328125 4.8671875 C-5.96285382 4.95419092 -7.60126555 4.97419813 -9.23828125 4.96484375 C-10.22763672 4.96162109 -11.21699219 4.95839844 -12.23632812 4.95507812 C-13.27724609 4.94669922 -14.31816406 4.93832031 -15.390625 4.9296875 C-16.43541016 4.92517578 -17.48019531 4.92066406 -18.55664062 4.91601562 C-21.1471916 4.90418663 -23.73763059 4.88770439 -26.328125 4.8671875 C-26.328125 4.5371875 -26.328125 4.2071875 -26.328125 3.8671875 C-21.378125 3.8671875 -16.428125 3.8671875 -11.328125 3.8671875 C-11.328125 3.2071875 -11.328125 2.5471875 -11.328125 1.8671875 C-11.988125 1.8671875 -12.648125 1.8671875 -13.328125 1.8671875 C-13.328125 1.2071875 -13.328125 0.5471875 -13.328125 -0.1328125 C-13.95460938 -0.17019531 -14.58109375 -0.20757812 -15.2265625 -0.24609375 C-16.04382813 -0.31183594 -16.86109375 -0.37757812 -17.703125 -0.4453125 C-18.51523438 -0.50332031 -19.32734375 -0.56132813 -20.1640625 -0.62109375 C-22.328125 -1.1328125 -22.328125 -1.1328125 -24.328125 -4.1328125 C-15.62999284 -7.03218989 -7.89410497 -3.84109135 0 0 Z " fill="#161503" transform="translate(114.328125,127.1328125)"/>
<path d="M0 0 C7.33333333 -0.36666667 7.33333333 -0.36666667 10.5 1.375 C12 3 12 3 12 5 C12.763125 5.103125 13.52625 5.20625 14.3125 5.3125 C17.17059424 6.04364039 18.15742885 6.76951913 20 9 C18.02 9.66 16.04 10.32 14 11 C14 11.99 14 12.98 14 14 C13.01 14 12.02 14 11 14 C11 13.01 11 12.02 11 11 C8.69 11 6.38 11 4 11 C4.33 9.02 4.66 7.04 5 5 C3.35 5 1.7 5 0 5 C0 3.35 0 1.7 0 0 Z " fill="#211F07" transform="translate(41,19)"/>
<path d="M0 0 C2.35964273 0.40683495 3.85934088 0.89814339 5.8125 2.3125 C7 4 7 4 6.6875 6.1875 C6.3471875 7.0846875 6.3471875 7.0846875 6 8 C4.68 8 3.36 8 2 8 C2 8.66 2 9.32 2 10 C1.01 10.495 1.01 10.495 0 11 C0.66 11.66 1.32 12.32 2 13 C2.125 15.625 2.125 15.625 2 18 C1.608125 17.525625 1.21625 17.05125 0.8125 16.5625 C-1.40808374 14.64820367 -3.13375709 14.38733012 -6 14 C-6.144375 13.236875 -6.28875 12.47375 -6.4375 11.6875 C-6.9632594 8.91827092 -6.9632594 8.91827092 -8 6 C-7.5625 3.8125 -7.5625 3.8125 -7 2 C-6.34 2 -5.68 2 -5 2 C-5 3.32 -5 4.64 -5 6 C-2.12579877 3.28395285 -2.12579877 3.28395285 0 0 Z " fill="#9E9428" transform="translate(43,65)"/>
<path d="M0 0 C2.70788826 3.15291725 3.66405193 5.83968468 4.5625 9.875 C6.10007924 16.66814668 7.63409852 21.92240702 11.9375 27.5 C14.12156988 30.34133203 15.96175542 32.92156456 17.53515625 36.1484375 C18.96638463 38.93456207 20.05602928 40.24914528 22.5 42.125 C24.55246344 43.76954707 26.04619268 45.06218246 27.625 47.1875 C29.38388191 49.50602615 31.52149788 50.52629604 34 52 C34 52.66 34 53.32 34 54 C27.49971812 52.96114216 22.52657527 47.26540991 18.65917969 42.26708984 C15.98026487 38.52352881 13.50785245 34.6577383 11.08691406 30.74365234 C10.1460614 29.23431503 9.16625932 27.74938898 8.1796875 26.26953125 C4.05179722 19.9117505 1.92887433 13.30004748 0 6 C-0.33064453 4.88238281 -0.33064453 4.88238281 -0.66796875 3.7421875 C-1 2 -1 2 0 0 Z " fill="#CBBF41" transform="translate(20,64)"/>
<path d="M0 0 C0.99 0 1.98 0 3 0 C3 2.31 3 4.62 3 7 C3.66 7 4.32 7 5 7 C5 5.02 5 3.04 5 1 C8 2 8 2 10 3 C10 3.66 10 4.32 10 5 C8.68 4.67 7.36 4.34 6 4 C5.81798068 8.00442495 6.0101595 10.51777912 8 14 C8 14.66 8 15.32 8 16 C8.78375 15.938125 9.5675 15.87625 10.375 15.8125 C11.24125 15.874375 12.1075 15.93625 13 16 C13.66 16.99 14.32 17.98 15 19 C15.99 19 16.98 19 18 19 C17.67 18.01 17.34 17.02 17 16 C17.99 16.33 18.98 16.66 20 17 C20 17.66 20 18.32 20 19 C20.66 19.33 21.32 19.66 22 20 C21.34 20 20.68 20 20 20 C19.67 20.66 19.34 21.32 19 22 C18.01 21.67 17.02 21.34 16 21 C16 21.66 16 22.32 16 23 C11.44527027 22.46414944 8.46819755 21.00577121 5 18 C4.22849572 15.99576606 3.81549096 14.07869347 3.42578125 11.96875 C2.83622481 9.24272758 1.628798 7.23959726 0 5 C-0.66 4.67 -1.32 4.34 -2 4 C-1.34 2.68 -0.68 1.36 0 0 Z " fill="#CEC460" transform="translate(30,63)"/>
<path d="M0 0 C3.34373475 0.55728913 6.03312999 1.35173889 9 3 C9 3.66 9 4.32 9 5 C9.94875 5.28875 10.8975 5.5775 11.875 5.875 C15 7 15 7 17 9 C15.02 9.33 13.04 9.66 11 10 C11.33 10.99 11.66 11.98 12 13 C10.68 12.67 9.36 12.34 8 12 C8 11.34 8 10.68 8 10 C7.24074219 10.02320312 6.48148438 10.04640625 5.69921875 10.0703125 C4.70535156 10.08835937 3.71148437 10.10640625 2.6875 10.125 C1.20830078 10.15980469 1.20830078 10.15980469 -0.30078125 10.1953125 C-3 10 -3 10 -6 8 C-6 7.34 -6 6.68 -6 6 C-3.69 6 -1.38 6 1 6 C0.67 5.01 0.34 4.02 0 3 C0.99 3 1.98 3 3 3 C2.01 2.01 1.02 1.02 0 0 Z " fill="#403B02" transform="translate(55,98)"/>
<path d="M0 0 C4.95 0 9.9 0 15 0 C17 7 17 7 17 9 C13.37 9 9.74 9 6 9 C6.33 6.69 6.66 4.38 7 2 C5.68 2 4.36 2 3 2 C3.33 3.98 3.66 5.96 4 8 C3.01 8 2.02 8 1 8 C0.67 5.36 0.34 2.72 0 0 Z " fill="#D2CC7E" transform="translate(298,102)"/>
<path d="M0 0 C-0.33 1.32 -0.66 2.64 -1 4 C-1.99 3.67 -2.98 3.34 -4 3 C-6.06618749 3.09268505 -6.06618749 3.09268505 -8.1875 3.4375 C-9.445625 3.623125 -10.70375 3.80875 -12 4 C-11.67 4.99 -11.34 5.98 -11 7 C-14.3 7 -17.6 7 -21 7 C-21.33 7.99 -21.66 8.98 -22 10 C-24.31 10.33 -26.62 10.66 -29 11 C-28.67 9.68 -28.34 8.36 -28 7 C-28.66 6.67 -29.32 6.34 -30 6 C-24.74664302 2.90520059 -19.81073588 2.10306744 -13.875 1.3125 C-12.98167969 1.18294922 -12.08835937 1.05339844 -11.16796875 0.91992188 C-7.37720875 0.38445578 -3.84117957 0 0 0 Z " fill="#1D1A03" transform="translate(62,36)"/>
<path d="M0 0 C-0.59927826 3.35595828 -1.84622436 5.37801226 -4 8 C-1.36 8 1.28 8 4 8 C2.02 8.99 2.02 8.99 0 10 C0 10.66 0 11.32 0 12 C-4.29 12 -8.58 12 -13 12 C-12.34 10.68 -11.68 9.36 -11 8 C-11 7.01 -11 6.02 -11 5 C-5.23076923 -0.76923077 -5.23076923 -0.76923077 0 0 Z " fill="#5B561C" transform="translate(134,115)"/>
<path d="M0 0 C1.2065625 0.0309375 1.2065625 0.0309375 2.4375 0.0625 C2.4375 1.7125 2.4375 3.3625 2.4375 5.0625 C3.7575 5.3925 5.0775 5.7225 6.4375 6.0625 C4.875 7.625 4.875 7.625 2.4375 9.0625 C-1.3125 8.75 -1.3125 8.75 -4.5625 8.0625 C-4.5625 8.7225 -4.5625 9.3825 -4.5625 10.0625 C-5.8825 9.7325 -7.2025 9.4025 -8.5625 9.0625 C-8.8925 7.7425 -9.2225 6.4225 -9.5625 5.0625 C-10.5525 5.0625 -11.5425 5.0625 -12.5625 5.0625 C-12.5625 7.0425 -12.5625 9.0225 -12.5625 11.0625 C-13.2225 11.0625 -13.8825 11.0625 -14.5625 11.0625 C-15.25 8.75 -15.25 8.75 -15.5625 6.0625 C-14.5 4.3125 -14.5 4.3125 -12.5625 3.0625 C-9.375 2.375 -9.375 2.375 -6.5625 2.0625 C-6.2325 3.0525 -5.9025 4.0425 -5.5625 5.0625 C-4.2425 5.0625 -2.9225 5.0625 -1.5625 5.0625 C-1.5625 4.0725 -1.5625 3.0825 -1.5625 2.0625 C-2.2225 1.7325 -2.8825 1.4025 -3.5625 1.0625 C-2.5625 0.0625 -2.5625 0.0625 0 0 Z " fill="#EEE68D" transform="translate(27.5625,34.9375)"/>
<path d="M0 0 C2.875 -0.1875 2.875 -0.1875 6 0 C8 3 8 3 7.9375 5.0625 C6.60168091 7.82319278 4.80597457 7.97342394 2 9 C1.01 10.485 1.01 10.485 0 12 C-0.33 11.67 -0.66 11.34 -1 11 C-1.99 12.485 -1.99 12.485 -3 14 C-3.66 14 -4.32 14 -5 14 C-5 12.02 -5 10.04 -5 8 C-4.34 7.67 -3.68 7.34 -3 7 C-3.33 5.35 -3.66 3.7 -4 2 C-3.01 2.33 -2.02 2.66 -1 3 C-0.67 2.01 -0.34 1.02 0 0 Z " fill="#201E04" transform="translate(27,48)"/>
<path d="M0 0 C6.15234375 -0.09765625 6.15234375 -0.09765625 8 0 C9 1 9 1 9.25 3.375 C9 6 9 6 7.6875 7.8125 C6 9 6 9 3 9 C3.33 10.65 3.66 12.3 4 14 C2.68 14 1.36 14 0 14 C0 9.38 0 4.76 0 0 Z " fill="#766E18" transform="translate(287,102)"/>
<path d="M0 0 C2.31 0 4.62 0 7 0 C7.66 0.66 8.32 1.32 9 2 C8.625 5.125 8.625 5.125 8 8 C6.35 8.33 4.7 8.66 3 9 C3.33 10.65 3.66 12.3 4 14 C2.68 14 1.36 14 0 14 C0 9.38 0 4.76 0 0 Z " fill="#716919" transform="translate(255,121)"/>
<path d="M0 0 C0.99 0 1.98 0 3 0 C3.33 4.62 3.66 9.24 4 14 C0.16046631 14.95988342 -1.32874473 14.99223115 -5 14 C-6 13 -6 13 -6.25 10.5625 C-6.1675 9.716875 -6.085 8.87125 -6 8 C-3 6 -3 6 1 6 C0.67 4.02 0.34 2.04 0 0 Z " fill="#726C29" transform="translate(230,115)"/>
<path d="M0 0 C0.9075 0.350625 1.815 0.70125 2.75 1.0625 C6.11334263 2.3271905 6.11334263 2.3271905 10 1 C10.33 3.97 10.66 6.94 11 10 C10.278125 9.814375 9.55625 9.62875 8.8125 9.4375 C5.87173027 8.98004693 3.85896942 9.26483643 1 10 C-1.125 3.375 -1.125 3.375 0 0 Z " fill="#E5DC80" transform="translate(310,120)"/>
<path d="M0 0 C1.76150391 -0.02126953 1.76150391 -0.02126953 3.55859375 -0.04296875 C6.5625 0.1875 6.5625 0.1875 8.5625 2.1875 C8.96297444 4.51025177 9.3022104 6.84489357 9.5625 9.1875 C8.2425 9.1875 6.9225 9.1875 5.5625 9.1875 C5.5625 6.8775 5.5625 4.5675 5.5625 2.1875 C4.5725 2.1875 3.5825 2.1875 2.5625 2.1875 C2.8925 4.4975 3.2225 6.8075 3.5625 9.1875 C2.2425 9.1875 0.9225 9.1875 -0.4375 9.1875 C-0.4375 6.8775 -0.4375 4.5675 -0.4375 2.1875 C-1.7575 2.1875 -3.0775 2.1875 -4.4375 2.1875 C-4.4375 4.1675 -4.4375 6.1475 -4.4375 8.1875 C-5.0975 8.1875 -5.7575 8.1875 -6.4375 8.1875 C-6.81813221 5.8614143 -7.15019945 3.52694736 -7.4375 1.1875 C-5.56506019 -0.68493981 -2.50090482 0.01369608 0 0 Z " fill="#79711D" transform="translate(330.4375,120.8125)"/>
<path d="M0 0 C0.66 0 1.32 0 2 0 C2 2.31 2 4.62 2 7 C2.804375 6.979375 3.60875 6.95875 4.4375 6.9375 C7 7 7 7 8 8 C8.125 11 8.125 11 8 14 C7.67 14.33 7.34 14.66 7 15 C4.69 15 2.38 15 0 15 C0 10.05 0 5.1 0 0 Z " fill="#6A6429" transform="translate(212,95)"/>
<path d="M0 0 C2.5 0.25 2.5 0.25 4.5 2.25 C3.93181818 7.81818182 3.93181818 7.81818182 2.5 9.25 C0.0625 9.4375 0.0625 9.4375 -2.5 9.25 C-4.5 7.25 -4.5 7.25 -4.75 4.75 C-4.40058445 1.25584452 -3.49415548 0.34941555 0 0 Z " fill="#6E6613" transform="translate(248.5,120.75)"/>
<path d="M0 0 C3.65448342 3.65448342 3.15543812 7.95553632 3.375 12.9375 C3.70165635 19.3622688 4.83894029 25.27338528 6.57421875 31.48828125 C6.71472656 32.31714844 6.85523437 33.14601562 7 34 C6.34 34.66 5.68 35.32 5 36 C3.54815522 31.46298506 2.76490804 27.81938524 3 23 C2.34 23 1.68 23 1 23 C0.67 23.66 0.34 24.32 0 25 C0.17402344 24.21367188 0.34804688 23.42734375 0.52734375 22.6171875 C1.12495703 18.04371728 0.8631808 13.71470234 0.5625 9.125 C0.51029297 8.24585938 0.45808594 7.36671875 0.40429688 6.4609375 C0.27552439 4.30692501 0.13858537 2.15340341 0 0 Z " fill="#615A12" transform="translate(61,46)"/>
<path d="M0 0 C2.64 0 5.28 0 8 0 C8.66 1.98 9.32 3.96 10 6 C9.34 6 8.68 6 8 6 C8.33 7.98 8.66 9.96 9 12 C7.68 12.33 6.36 12.66 5 13 C2 8.375 2 8.375 2 5 C4 3.3125 4 3.3125 6 2 C5.34 1.67 4.68 1.34 4 1 C4 1.66 4 2.32 4 3 C3.01 3 2.02 3 1 3 C0.67 2.01 0.34 1.02 0 0 Z " fill="#514C11" transform="translate(33,13)"/>
<path d="M0 0 C1.0725 0.309375 2.145 0.61875 3.25 0.9375 C5.82866222 1.66812096 8.39512102 2.37482904 11 3 C11 3.66 11 4.32 11 5 C11.66 5 12.32 5 13 5 C13 5.66 13 6.32 13 7 C8.05 7 3.1 7 -2 7 C-1.34 4.69 -0.68 2.38 0 0 Z " fill="#080801" transform="translate(90,124)"/>
<path d="M0 0 C2.68483956 1.34241978 2.9102625 2.71495895 4.125 5.4375 C6.55979837 10.49606616 9.6311312 14.58354634 13.23046875 18.87109375 C15 21 15 21 17 24 C16.34 24.99 15.68 25.98 15 27 C14.36191406 25.91912109 14.36191406 25.91912109 13.7109375 24.81640625 C8.83395413 16.51058213 8.83395413 16.51058213 2.0625 9.875 C0 8 0 8 -0.3046875 5.9921875 C-0.31165602 3.99222338 -0.16608899 1.99306786 0 0 Z " fill="#383409" transform="translate(67,80)"/>
<path d="M0 0 C2.5 0.25 2.5 0.25 4.5 2.25 C3.94444444 6.80555556 3.94444444 6.80555556 2.5 8.25 C-0.5 8.375 -0.5 8.375 -3.5 8.25 C-4.5 7.25 -4.5 7.25 -4.6875 4.8125 C-4.42807033 1.26696114 -3.53871738 0.35387174 0 0 Z " fill="#554E09" transform="translate(280.5,101.75)"/>
<path d="M0 0 C2.97 0.495 2.97 0.495 6 1 C6.144375 2.0725 6.28875 3.145 6.4375 4.25 C6.83749442 6.91662949 7.27591924 9.41399729 8 12 C4.00377939 11.11195098 2.39414359 10.58485823 0.0625 7.125 C-0.98072075 4.05670368 -1.23512958 2.91939719 0 0 Z " fill="#C7BE60" transform="translate(44,88)"/>
<path d="M0 0 C1.62723299 0.45034123 3.25173664 0.91055354 4.875 1.375 C5.77992187 1.63023438 6.68484375 1.88546875 7.6171875 2.1484375 C10 3 10 3 12 5 C12 5.99 12 6.98 12 8 C10.56163249 7.88541307 9.12429034 7.75790884 7.6875 7.625 C6.88699219 7.55539063 6.08648437 7.48578125 5.26171875 7.4140625 C3 7 3 7 0 5 C-0.1875 2.375 -0.1875 2.375 0 0 Z " fill="#0B0A01" transform="translate(65,29)"/>
<path d="M0 0 C1.32 0 2.64 0 4 0 C4 1.32 4 2.64 4 4 C4.66 4 5.32 4 6 4 C6 2.68 6 1.36 6 0 C6.99 0 7.98 0 9 0 C9.66 0.99 10.32 1.98 11 3 C11.33 2.01 11.66 1.02 12 0 C12.99 0 13.98 0 15 0 C13.87548273 2.9719385 12.77706209 5.33440687 11 8 C10.34 8 9.68 8 9 8 C8.67 7.34 8.34 6.68 8 6 C6.02 6.99 6.02 6.99 4 8 C2.68 5.36 1.36 2.72 0 0 Z " fill="#7A721E" transform="translate(185,102)"/>
<path d="M0 0 C0 3.3 0 6.6 0 10 C-3.375 10.125 -3.375 10.125 -7 10 C-7.66 9.34 -8.32 8.68 -9 8 C-7.35 7.34 -5.7 6.68 -4 6 C-4.33 5.01 -4.66 4.02 -5 3 C-6.65 3.33 -8.3 3.66 -10 4 C-10 3.34 -10 2.68 -10 2 C-6.38026598 0.68373308 -3.90432869 0 0 0 Z " fill="#B8AE4B" transform="translate(46,24)"/>
<path d="M0 0 C-0.33 0.99 -0.66 1.98 -1 3 C-9.25 3 -17.5 3 -26 3 C-26.33 2.34 -26.66 1.68 -27 1 C-17.98978127 0.41464936 -9.0343984 -0.14340315 0 0 Z " fill="#FEF8B4" transform="translate(131,136)"/>
<path d="M0 0 C0.680625 -0.00257812 1.36125 -0.00515625 2.0625 -0.0078125 C4 0.125 4 0.125 7 1.125 C7 2.775 7 4.425 7 6.125 C5.03951648 5.8701971 3.08159327 5.59563056 1.125 5.3125 C-0.51082031 5.08626953 -0.51082031 5.08626953 -2.1796875 4.85546875 C-5 4.125 -5 4.125 -7 1.125 C-4.32356043 0.23285348 -2.74615622 -0.01040211 0 0 Z " fill="#3C3809" transform="translate(97,121.875)"/>
<path d="M0 0 C0.66 0 1.32 0 2 0 C2 1.32 2 2.64 2 4 C3.32 3.67 4.64 3.34 6 3 C6.66 4.32 7.32 5.64 8 7 C7.01 7 6.02 7 5 7 C5 8.98 5 10.96 5 13 C3.68 12.67 2.36 12.34 1 12 C0.855625 11.236875 0.71125 10.47375 0.5625 9.6875 C0.0367406 6.91827092 0.0367406 6.91827092 -1 4 C-0.5625 1.8125 -0.5625 1.8125 0 0 Z " fill="#262305" transform="translate(36,67)"/>
<path d="M0 0 C0.66 0 1.32 0 2 0 C1.34 3.3 0.68 6.6 0 10 C-1.32 10.33 -2.64 10.66 -4 11 C-4.99 10.34 -5.98 9.68 -7 9 C-7.99 10.485 -7.99 10.485 -9 12 C-9.66 11.67 -10.32 11.34 -11 11 C-10.34 9.68 -9.68 8.36 -9 7 C-8.01 7 -7.02 7 -6 7 C-6 6.34 -6 5.68 -6 5 C-4.68 5 -3.36 5 -2 5 C-2 4.01 -2 3.02 -2 2 C-1.34 2 -0.68 2 0 2 C0 1.34 0 0.68 0 0 Z " fill="#A69C31" transform="translate(43,50)"/>
<path d="M0 0 C0.66 0 1.32 0 2 0 C2 1.65 2 3.3 2 5 C0.68 5 -0.64 5 -2 5 C-2 5.66 -2 6.32 -2 7 C-2.99 7 -3.98 7 -5 7 C-5.33 8.32 -5.66 9.64 -6 11 C-7.65 11 -9.3 11 -11 11 C-10.8125 8.625 -10.8125 8.625 -10 6 C-7.5 4.8125 -7.5 4.8125 -5 4 C-4.67 3.34 -4.34 2.68 -4 2 C-3.34 2 -2.68 2 -2 2 C-2 2.66 -2 3.32 -2 4 C-1.34 3.67 -0.68 3.34 0 3 C0 2.01 0 1.02 0 0 Z " fill="#F1E889" transform="translate(39,50)"/>
<path d="M0 0 C4.31902671 0.35991889 5.77034973 1.24521296 8.75 4.3125 C9.08 5.3025 9.41 6.2925 9.75 7.3125 C8.43 7.3125 7.11 7.3125 5.75 7.3125 C5.75 6.3225 5.75 5.3325 5.75 4.3125 C4.1 4.3125 2.45 4.3125 0.75 4.3125 C0.42 4.9725 0.09 5.6325 -0.25 6.3125 C-1.9 5.9825 -3.55 5.6525 -5.25 5.3125 C-4.26 4.9825 -3.27 4.6525 -2.25 4.3125 C-2.25 3.6525 -2.25 2.9925 -2.25 2.3125 C-2.91 1.9825 -3.57 1.6525 -4.25 1.3125 C-3.25 0.3125 -3.25 0.3125 0 0 Z " fill="#110F03" transform="translate(69.25,106.6875)"/>
<path d="M0 0 C1.6875 1.4375 1.6875 1.4375 3 3 C3.99 3 4.98 3 6 3 C5.67 2.01 5.34 1.02 5 0 C5.99 0.33 6.98 0.66 8 1 C8 1.66 8 2.32 8 3 C8.66 3.33 9.32 3.66 10 4 C9.34 4 8.68 4 8 4 C7.67 4.66 7.34 5.32 7 6 C6.01 5.67 5.02 5.34 4 5 C4 5.66 4 6.32 4 7 C0.05879291 6.43697042 -2.7508723 5.3208055 -6 3 C-6 2.34 -6 1.68 -6 1 C-3.1875 0.3125 -3.1875 0.3125 0 0 Z " fill="#E3DC88" transform="translate(42,79)"/>
<path d="M0 0 C3.5625 0.1875 3.5625 0.1875 5.5625 2.1875 C5.6875 5.3125 5.6875 5.3125 5.5625 8.1875 C4.9025 8.1875 4.2425 8.1875 3.5625 8.1875 C3.5625 6.2075 3.5625 4.2275 3.5625 2.1875 C2.2425 2.1875 0.9225 2.1875 -0.4375 2.1875 C-0.1075 4.4975 0.2225 6.8075 0.5625 9.1875 C-0.7575 9.1875 -2.0775 9.1875 -3.4375 9.1875 C-4.31640625 3.03515625 -4.31640625 3.03515625 -4.4375 1.1875 C-3.4375 0.1875 -3.4375 0.1875 0 0 Z " fill="#6F6824" transform="translate(201.4375,120.8125)"/>
<path d="M0 0 C1.65 0 3.3 0 5 0 C5 2.31 5 4.62 5 7 C5.66 7 6.32 7 7 7 C7 7.66 7 8.32 7 9 C4.36 9 1.72 9 -1 9 C-0.67 7.35 -0.34 5.7 0 4 C0.99 4 1.98 4 3 4 C3 3.34 3 2.68 3 2 C1.68 2.33 0.36 2.66 -1 3 C-0.67 2.01 -0.34 1.02 0 0 Z " fill="#7F7728" transform="translate(273,121)"/>
<path d="M0 0 C1.2065625 0.0309375 1.2065625 0.0309375 2.4375 0.0625 C2.4375 1.7125 2.4375 3.3625 2.4375 5.0625 C3.7575 5.3925 5.0775 5.7225 6.4375 6.0625 C4.875 7.625 4.875 7.625 2.4375 9.0625 C-1.3125 8.75 -1.3125 8.75 -4.5625 8.0625 C-4.0675 7.629375 -3.5725 7.19625 -3.0625 6.75 C-1.23031808 5.06509517 -1.23031808 5.06509517 -1.5625 2.0625 C-2.2225 1.7325 -2.8825 1.4025 -3.5625 1.0625 C-2.5625 0.0625 -2.5625 0.0625 0 0 Z " fill="#E4DC7D" transform="translate(27.5625,34.9375)"/>
<path d="M0 0 C2.625 0.375 2.625 0.375 5 1 C5.33 1.99 5.66 2.98 6 4 C4.35 4.33 2.7 4.66 1 5 C1 5.66 1 6.32 1 7 C2.65 6.67 4.3 6.34 6 6 C6 6.66 6 7.32 6 8 C3.125 8.625 3.125 8.625 0 9 C-2 7 -2 7 -2.25 4.5 C-2 2 -2 2 0 0 Z " fill="#7F7723" transform="translate(343,121)"/>
<path d="M0 0 C1.91731918 0.11455681 3.8338675 0.24206258 5.75 0.375 C7.35101563 0.47941406 7.35101563 0.47941406 8.984375 0.5859375 C11.80206432 0.9728223 13.5830366 1.55686166 16 3 C16 3.66 16 4.32 16 5 C16.66 5 17.32 5 18 5 C18 5.66 18 6.32 18 7 C16.68 6.67 15.36 6.34 14 6 C14 5.34 14 4.68 14 4 C13.24074219 4.02320312 12.48148438 4.04640625 11.69921875 4.0703125 C10.70535156 4.08835937 9.71148437 4.10640625 8.6875 4.125 C7.20830078 4.15980469 7.20830078 4.15980469 5.69921875 4.1953125 C3 4 3 4 0 2 C0 1.34 0 0.68 0 0 Z " fill="#887F20" transform="translate(49,104)"/>
<path d="M0 0 C2.0625 0.1875 2.0625 0.1875 4 1 C4.33 1.99 4.66 2.98 5 4 C3.35 4.33 1.7 4.66 0 5 C0 5.66 0 6.32 0 7 C1.65 7 3.3 7 5 7 C5 7.66 5 8.32 5 9 C2.125 9.125 2.125 9.125 -1 9 C-1.66 8.34 -2.32 7.68 -3 7 C-2.67028521 3.70285207 -2.3773161 2.3773161 0 0 Z " fill="#807720" transform="translate(319,101)"/>
<path d="M0 0 C0.79921875 0.00644531 1.5984375 0.01289063 2.421875 0.01953125 C3.246875 0.03628906 4.071875 0.05304688 4.921875 0.0703125 C5.76234375 0.07933594 6.6028125 0.08835938 7.46875 0.09765625 C9.53658104 0.12115433 11.60426495 0.15702342 13.671875 0.1953125 C13.341875 0.8553125 13.011875 1.5153125 12.671875 2.1953125 C10.05765581 2.53850338 7.54789857 2.75567227 4.921875 2.8828125 C3.84679687 2.95338867 3.84679687 2.95338867 2.75 3.02539062 C-1.11631775 3.24216028 -4.57449783 3.17805347 -8.328125 2.1953125 C-5.40988256 0.52856929 -3.35218121 -0.0478883 0 0 Z " fill="#AEA43F" transform="translate(100.328125,132.8046875)"/>
<path d="M0 0 C1.6792238 0.63437344 3.35008418 1.29289322 5 2 C3.35 3.65 1.7 5.3 0 7 C-0.33 6.34 -0.66 5.68 -1 5 C-3.40952023 3.75285597 -3.40952023 3.75285597 -6 3 C-6.99 3.495 -6.99 3.495 -8 4 C-7.625 2.0625 -7.625 2.0625 -7 0 C-4.26965677 -1.36517162 -2.92769462 -0.74894513 0 0 Z " fill="#0B0A00" transform="translate(42,85)"/>
<path d="M0 0 C2.5625 0.1875 2.5625 0.1875 4.5625 2.1875 C4.1875 5.3125 4.1875 5.3125 3.5625 8.1875 C3.2325 7.1975 2.9025 6.2075 2.5625 5.1875 C1.2425 5.1875 -0.0775 5.1875 -1.4375 5.1875 C-1.7675 5.8475 -2.0975 6.5075 -2.4375 7.1875 C-3.0975 6.5275 -3.7575 5.8675 -4.4375 5.1875 C-3.69457547 0.28419811 -3.69457547 0.28419811 0 0 Z " fill="#827A27" transform="translate(28.4375,3.8125)"/>
<path d="M0 0 C4.57888152 1.45115322 8.97649435 3.20581904 13.375 5.125 C14.01566406 5.40214844 14.65632813 5.67929688 15.31640625 5.96484375 C16.87856925 6.64100385 18.43942315 7.32018707 20 8 C20 8.33 20 8.66 20 9 C12.48372024 8.44323854 4.19871739 6.88851484 -1 1 C-0.67 0.67 -0.34 0.34 0 0 Z " fill="#B3A519" transform="translate(61,122)"/>
<path d="M0 0 C0.103125 0.639375 0.20625 1.27875 0.3125 1.9375 C0.539375 2.618125 0.76625 3.29875 1 4 C1.99 4.33 2.98 4.66 4 5 C4 5.66 4 6.32 4 7 C4.66 7 5.32 7 6 7 C6 5.02 6 3.04 6 1 C6.99 1 7.98 1 9 1 C10.0625 3.375 10.0625 3.375 11 6 C10.67 6.66 10.34 7.32 10 8 C8.02 8 6.04 8 4 8 C3.67 8.99 3.34 9.98 3 11 C0.84694043 7.14243493 -0.39253254 4.44870215 0 0 Z " fill="#3E3907" transform="translate(9,39)"/>
<path d="M0 0 C3.85913184 1.51608751 5.45507368 3.80066405 8 7 C12.49118549 11.3084675 12.49118549 11.3084675 18 14 C17.67 13.01 17.34 12.02 17 11 C17.66 11 18.32 11 19 11 C19 12.32 19 13.64 19 15 C17.30859375 15.75390625 17.30859375 15.75390625 15 16 C12.59765625 14.33984375 12.59765625 14.33984375 10.0625 11.9375 C9.18980469 11.11121094 8.31710938 10.28492187 7.41796875 9.43359375 C0 1.96768982 0 1.96768982 0 0 Z " fill="#4B450C" transform="translate(36,104)"/>
<path d="M0 0 C2.64 0 5.28 0 8 0 C8.66 2.31 9.32 4.62 10 7 C9.01 7.33 8.02 7.66 7 8 C7 6.02 7 4.04 7 2 C5.68 2 4.36 2 3 2 C3.33 3.98 3.66 5.96 4 8 C3.01 8 2.02 8 1 8 C0.67 5.36 0.34 2.72 0 0 Z " fill="#575115" transform="translate(326,102)"/>
<path d="M0 0 C2.64 0 5.28 0 8 0 C8.66 2.31 9.32 4.62 10 7 C9.01 7.33 8.02 7.66 7 8 C7 6.02 7 4.04 7 2 C5.68 2 4.36 2 3 2 C3.33 3.98 3.66 5.96 4 8 C3.01 8 2.02 8 1 8 C0.67 5.36 0.34 2.72 0 0 Z " fill="#524C15" transform="translate(298,102)"/>
<path d="M0 0 C0.639375 0.2475 1.27875 0.495 1.9375 0.75 C2.2675 1.74 2.5975 2.73 2.9375 3.75 C1.2875 4.08 -0.3625 4.41 -2.0625 4.75 C-2.0625 5.74 -2.0625 6.73 -2.0625 7.75 C-1.0725 8.08 -0.0825 8.41 0.9375 8.75 C-2.0325 8.255 -2.0325 8.255 -5.0625 7.75 C-4.80688677 5.4068787 -4.46979228 3.07156597 -4.0625 0.75 C-2.0625 -0.25 -2.0625 -0.25 0 0 Z " fill="#787122" transform="translate(265.0625,101.25)"/>
<path d="M0 0 C3.5047286 0.55774176 4.80796701 1.57888189 6.9375 4.375 C9.34981165 7.37657862 11.61764863 9.10986247 15 11 C15 11.66 15 12.32 15 13 C10.93384102 12.45026289 8.78418811 10.33770791 5.8125 7.625 C4.93207031 6.83351563 4.05164062 6.04203125 3.14453125 5.2265625 C1 3 1 3 0 0 Z " fill="#E0D775" transform="translate(39,105)"/>
<path d="M0 0 C3.26954202 0.56371414 4.82575883 1.49962266 7 4 C6.34 4 5.68 4 5 4 C4.5978125 5.2065625 4.5978125 5.2065625 4.1875 6.4375 C3.795625 7.283125 3.40375 8.12875 3 9 C2.01 9.33 1.02 9.66 0 10 C0 9.01 0 8.02 0 7 C0.66 7 1.32 7 2 7 C2 6.34 2 5.68 2 5 C0.68 4.67 -0.64 4.34 -2 4 C-1.34 4 -0.68 4 0 4 C0 2.68 0 1.36 0 0 Z " fill="#F3EC97" transform="translate(38,61)"/>
<path d="M0 0 C1.4540625 0.0309375 1.4540625 0.0309375 2.9375 0.0625 C2.9375 1.0525 2.9375 2.0425 2.9375 3.0625 C1.6175 3.0625 0.2975 3.0625 -1.0625 3.0625 C-0.4025 5.0425 0.2575 7.0225 0.9375 9.0625 C-0.7125 9.0625 -2.3625 9.0625 -4.0625 9.0625 C-4.16015625 2.91015625 -4.16015625 2.91015625 -4.0625 1.0625 C-3.0625 0.0625 -3.0625 0.0625 0 0 Z " fill="#877E23" transform="translate(240.0625,120.9375)"/>
<path d="M0 0 C0.66 0 1.32 0 2 0 C2.33 4.62 2.66 9.24 3 14 C-3.15234375 14.09765625 -3.15234375 14.09765625 -5 14 C-6 13 -6 13 -6.0625 10.4375 C-6.041875 9.633125 -6.02125 8.82875 -6 8 C-5.01 9.485 -5.01 9.485 -4 11 C-2.68 11.33 -1.36 11.66 0 12 C0 8.04 0 4.08 0 0 Z " fill="#45400E" transform="translate(234,96)"/>
<path d="M0 0 C0.66 0.33 1.32 0.66 2 1 C1.67 4.63 1.34 8.26 1 12 C-0.65 11.67 -2.3 11.34 -4 11 C-4.33 9.68 -4.66 8.36 -5 7 C-2 5 -2 5 1 5 C0.67 3.35 0.34 1.7 0 0 Z " fill="#8E852C" transform="translate(233,96)"/>
<path d="M0 0 C1.32 0.66 2.64 1.32 4 2 C3.67 3.32 3.34 4.64 3 6 C2.01 6 1.02 6 0 6 C0 7.98 0 9.96 0 12 C-0.66 12 -1.32 12 -2 12 C-2 9.69 -2 7.38 -2 5 C-3.32 4.67 -4.64 4.34 -6 4 C-4 3.33333333 -2 2.66666667 0 2 C0 1.34 0 0.68 0 0 Z " fill="#5B550F" transform="translate(35,58)"/>
<path d="M0 0 C4.55555556 0.55555556 4.55555556 0.55555556 6 2 C6.04063832 3.66617115 6.042721 5.33388095 6 7 C5.01 7 4.02 7 3 7 C3.33 5.35 3.66 3.7 4 2 C2.68 2 1.36 2 0 2 C0.33 3.98 0.66 5.96 1 8 C-0.32 7.67 -1.64 7.34 -3 7 C-2.25 2.25 -2.25 2.25 0 0 Z " fill="#635D1D" transform="translate(189,121)"/>
<path d="M0 0 C1.67542976 0.28604898 3.34385343 0.61781233 5 1 C5.33 1.99 5.66 2.98 6 4 C2.125 3.125 2.125 3.125 1 2 C1 3.65 1 5.3 1 7 C2.65 7 4.3 7 6 7 C5.67 7.66 5.34 8.32 5 9 C3.33388095 9.042721 1.66617115 9.04063832 0 9 C-1 8 -1 8 -1.125 4.5 C-1 1 -1 1 0 0 Z " fill="#6F671E" transform="translate(211,121)"/>
<path d="M0 0 C2.76262553 0.3810518 3.84143894 0.83597132 5.8125 2.875 C6.204375 3.57625 6.59625 4.2775 7 5 C6.67 5.99 6.34 6.98 6 8 C5.34 8 4.68 8 4 8 C3.67 8.66 3.34 9.32 3 10 C0 6.25 0 6.25 0 4 C0.66 4 1.32 4 2 4 C1.34 2.68 0.68 1.36 0 0 Z " fill="#343009" transform="translate(52,83)"/>
<path d="M0 0 C0.99 0 1.98 0 3 0 C3.33 4.62 3.66 9.24 4 14 C3.01 14.33 2.02 14.66 1 15 C0.896875 13.88625 0.79375 12.7725 0.6875 11.625 C0.460625 10.42875 0.23375 9.2325 0 8 C-0.99 7.34 -1.98 6.68 -3 6 C-1.68 6 -0.36 6 1 6 C0.67 4.02 0.34 2.04 0 0 Z " fill="#5A5309" transform="translate(230,115)"/>
<path d="M0 0 C5.61 0 11.22 0 17 0 C16.67 0.66 16.34 1.32 16 2 C15.01 1.67 14.02 1.34 13 1 C12.67 2.65 12.34 4.3 12 6 C11.34 5.34 10.68 4.68 10 4 C10 3.01 10 2.02 10 1 C9.01 1 8.02 1 7 1 C7 2.32 7 3.64 7 5 C6.34 5 5.68 5 5 5 C5 3.68 5 2.36 5 1 C3.35 1.33 1.7 1.66 0 2 C0 1.34 0 0.68 0 0 Z " fill="#F1E66D" transform="translate(184,101)"/>
<path d="M0 0 C0 0.66 0 1.32 0 2 C-0.66 2 -1.32 2 -2 2 C-2.66 3.32 -3.32 4.64 -4 6 C-4 5.34 -4 4.68 -4 4 C-4.99 4 -5.98 4 -7 4 C-7 3.34 -7 2.68 -7 2 C-7.99 1.67 -8.98 1.34 -10 1 C-9.34 1 -8.68 1 -8 1 C-8 0.34 -8 -0.32 -8 -1 C-4.59745511 -2.2151946 -3.06748874 -1.86240388 0 0 Z " fill="#232105" transform="translate(54,85)"/>
<path d="M0 0 C-0.33 1.32 -0.66 2.64 -1 4 C-1.99 3.67 -2.98 3.34 -4 3 C-6.06618749 3.09268505 -6.06618749 3.09268505 -8.1875 3.4375 C-9.445625 3.623125 -10.70375 3.80875 -12 4 C-11.67 4.99 -11.34 5.98 -11 7 C-11.99 6.67 -12.98 6.34 -14 6 C-13.67 5.01 -13.34 4.02 -13 3 C-14.32 2.67 -15.64 2.34 -17 2 C-14.91727106 1.66291092 -12.83378963 1.33046884 -10.75 1 C-9.58984375 0.814375 -8.4296875 0.62875 -7.234375 0.4375 C-4 0 -4 0 0 0 Z " fill="#474209" transform="translate(62,36)"/>
<path d="M0 0 C1.65 0.33 3.3 0.66 5 1 C5.33 3.31 5.66 5.62 6 8 C5.01 8 4.02 8 3 8 C3 7.01 3 6.02 3 5 C2.34 5 1.68 5 1 5 C1 6.32 1 7.64 1 9 C0.01 8.67 -0.98 8.34 -2 8 C-1.34 6.68 -0.68 5.36 0 4 C0.99 4 1.98 4 3 4 C3 3.34 3 2.68 3 2 C1.68 2.33 0.36 2.66 -1 3 C-0.67 2.01 -0.34 1.02 0 0 Z " fill="#686118" transform="translate(296,121)"/>
<path d="M0 0 C0 0.33 0 0.66 0 1 C1.65 1.33 3.3 1.66 5 2 C1.78817851 3.90608098 -0.53882603 4.22266247 -4.25 4.125 C-5.14203125 4.10695313 -6.0340625 4.08890625 -6.953125 4.0703125 C-7.96632812 4.03550781 -7.96632812 4.03550781 -9 4 C-8.67 3.01 -8.34 2.02 -8 1 C-5.29120665 -0.35439668 -2.99066732 -0.06501451 0 0 Z " fill="#FCF7AC" transform="translate(46,34)"/>
<path d="M0 0 C1.32 0 2.64 0 4 0 C4 1.65 4 3.3 4 5 C4.33 5 4.66 5 5 5 C5.33 3.35 5.66 1.7 6 0 C6.33 0 6.66 0 7 0 C7.04254356 1.99954746 7.04080783 4.00041636 7 6 C6 7 6 7 2.4375 7.0625 C1.303125 7.041875 0.16875 7.02125 -1 7 C-0.67 4.69 -0.34 2.38 0 0 Z " fill="#DCD57A" transform="translate(189,123)"/>
<path d="M0 0 C5.94 2.475 5.94 2.475 12 5 C12 5.99 12 6.98 12 8 C6.2902045 7.58221009 3.39042858 5.42453429 -1 2 C-0.67 1.34 -0.34 0.68 0 0 Z " fill="#423D08" transform="translate(97,114)"/>
<path d="M0 0 C1.32 0 2.64 0 4 0 C4 1.98 4 3.96 4 6 C5.32 5.67 6.64 5.34 8 5 C8 5.66 8 6.32 8 7 C4.37 7 0.74 7 -3 7 C-2.67 6.34 -2.34 5.68 -2 5 C-1.34 5 -0.68 5 0 5 C0 3.35 0 1.7 0 0 Z " fill="#DFD88D" transform="translate(329,104)"/>
<path d="M0 0 C2.0625 0.1875 2.0625 0.1875 4 1 C4.33 1.99 4.66 2.98 5 4 C4.34 4 3.68 4 3 4 C3 3.34 3 2.68 3 2 C2.01 2.495 2.01 2.495 1 3 C1.33 3.66 1.66 4.32 2 5 C1.34 5 0.68 5 0 5 C0.33 5.66 0.66 6.32 1 7 C2.65 7 4.3 7 6 7 C5.67 7.66 5.34 8.32 5 9 C3.00045254 9.04254356 0.99958364 9.04080783 -1 9 C-2 8 -2 8 -2.1875 5.0625 C-2 2 -2 2 0 0 Z " fill="#686016" transform="translate(204,101)"/>
<path d="M0 0 C1.98 0 3.96 0 6 0 C6.33 0.66 6.66 1.32 7 2 C1.25 5 1.25 5 -1 5 C-1 5.66 -1 6.32 -1 7 C-1.66 7 -2.32 7 -3 7 C-3.33 5.35 -3.66 3.7 -4 2 C-3.01 2.33 -2.02 2.66 -1 3 C-0.67 2.01 -0.34 1.02 0 0 Z " fill="#7A711C" transform="translate(27,48)"/>
<path d="M0 0 C0.66 0 1.32 0 2 0 C2.03738281 0.91523437 2.07476562 1.83046875 2.11328125 2.7734375 C2.17902344 3.96195312 2.24476563 5.15046875 2.3125 6.375 C2.37050781 7.55835937 2.42851562 8.74171875 2.48828125 9.9609375 C2.65714844 10.96382812 2.82601562 11.96671875 3 13 C3.99 13.66 4.98 14.32 6 15 C4.02 15 2.04 15 0 15 C0 10.05 0 5.1 0 0 Z " fill="#5C550A" transform="translate(212,95)"/>
<path d="M0 0 C0.66 0 1.32 0 2 0 C1.67 0.99 1.34 1.98 1 3 C8.26 3.33 15.52 3.66 23 4 C23 4.33 23 4.66 23 5 C14.75 5 6.5 5 -2 5 C-1 1 -1 1 0 0 Z " fill="#817A37" transform="translate(295,81)"/>
<path d="M0 0 C0.66 0 1.32 0 2 0 C2.33 4.95 2.66 9.9 3 15 C1.68 14.67 0.36 14.34 -1 14 C-1.02685938 11.85423363 -1.04633088 9.70837355 -1.0625 7.5625 C-1.07410156 6.36753906 -1.08570313 5.17257813 -1.09765625 3.94140625 C-1 1 -1 1 0 0 Z " fill="#5B5406" transform="translate(271,95)"/>
<path d="M0 0 C4.80189846 4.66851239 8.61583007 8.69897947 11 15 C11.66 15.66 12.32 16.32 13 17 C11.2265625 16.828125 11.2265625 16.828125 9 16 C7.1484375 13.671875 7.1484375 13.671875 5.375 10.75 C4.78460938 9.79609375 4.19421875 8.8421875 3.5859375 7.859375 C2.15630405 5.28180927 1.01798417 2.76166002 0 0 Z " fill="#C6BB4F" transform="translate(28,88)"/>
<path d="M0 0 C0.99 0 1.98 0 3 0 C4.125 3.75 4.125 3.75 3 6 C3.66 6 4.32 6 5 6 C5.33 8.64 5.66 11.28 6 14 C5.01 13.67 4.02 13.34 3 13 C3.33 11.68 3.66 10.36 4 9 C3.01 9 2.02 9 1 9 C0.67 6.03 0.34 3.06 0 0 Z " fill="#E4D859" transform="translate(59,63)"/>
<path d="M0 0 C0.66 0.66 1.32 1.32 2 2 C1.625 5.625 1.625 5.625 1 9 C0.34 8.67 -0.32 8.34 -1 8 C-1 7.34 -1 6.68 -1 6 C-2.65 6 -4.3 6 -6 6 C-6 5.34 -6 4.68 -6 4 C-4.35 3.67 -2.7 3.34 -1 3 C-0.67 2.01 -0.34 1.02 0 0 Z " fill="#F1EB9F" transform="translate(325,102)"/>
<path d="M0 0 C0.33 0.66 0.66 1.32 1 2 C1.66 2 2.32 2 3 2 C3 1.34 3 0.68 3 0 C6.63 0.33 10.26 0.66 14 1 C14 1.33 14 1.66 14 2 C8.79826905 2.86809439 3.83021184 3.12515348 -1.4375 3.0625 C-2.16904297 3.05798828 -2.90058594 3.05347656 -3.65429688 3.04882812 C-5.43623419 3.03718148 -7.21812863 3.01925191 -9 3 C-9 2.67 -9 2.34 -9 2 C-6.94921875 1.77213542 -4.8984375 1.54427083 -2.84765625 1.31640625 C-0.98859771 1.18113386 -0.98859771 1.18113386 0 0 Z " fill="#5D560D" transform="translate(114,133)"/>
<path d="M0 0 C3.63 0 7.26 0 11 0 C10.67 1.32 10.34 2.64 10 4 C9.67 3.67 9.34 3.34 9 3 C7.48071962 2.92820036 5.95832518 2.91607993 4.4375 2.9375 C3.19806641 2.95103516 3.19806641 2.95103516 1.93359375 2.96484375 C0.97646484 2.98224609 0.97646484 2.98224609 0 3 C0 2.01 0 1.02 0 0 Z " fill="#534C03" transform="translate(147,124)"/>
<path d="M0 0 C0 3.3 0 6.6 0 10 C-3 9 -3 9 -4.25 6.625 C-5 4 -5 4 -4 1 C-2 0 -2 0 0 0 Z " fill="#FAF4A3" transform="translate(61,50)"/>
<path d="M0 0 C1.65 0 3.3 0 5 0 C4.67 1.65 4.34 3.3 4 5 C0.25 6.125 0.25 6.125 -2 5 C-1.34 3.35 -0.68 1.7 0 0 Z " fill="#F9F2A5" transform="translate(59,29)"/>
<path d="M0 0 C0.33 0 0.66 0 1 0 C1 1.98 1 3.96 1 6 C1.66 6 2.32 6 3 6 C3 4.35 3 2.7 3 1 C3.99 0.67 4.98 0.34 6 0 C6.125 5.75 6.125 5.75 5 8 C3.35 8 1.7 8 0 8 C0 5.36 0 2.72 0 0 Z " fill="#CFC662" transform="translate(204,123)"/>
<path d="M0 0 C0.99 0.33 1.98 0.66 3 1 C2.01 1.495 2.01 1.495 1 2 C4.41016497 4.86453858 7.90694544 6.34703566 12 8 C10.359375 8.68359375 10.359375 8.68359375 8 9 C5.203125 7.78515625 5.203125 7.78515625 2.25 6.0625 C1.26515625 5.49660156 0.2803125 4.93070312 -0.734375 4.34765625 C-1.48203125 3.90292969 -2.2296875 3.45820312 -3 3 C-2.01 2.01 -1.02 1.02 0 0 Z " fill="#615A09" transform="translate(60,121)"/>
<path d="M0 0 C0.99 0 1.98 0 3 0 C3.66 1.32 4.32 2.64 5 4 C5.33 2.68 5.66 1.36 6 0 C6.99 0 7.98 0 9 0 C7.8141763 3.37503669 6.72426311 5.64722731 4 8 C0 2.25 0 2.25 0 0 Z " fill="#676013" transform="translate(249,102)"/>
<path d="M0 0 C0.598125 0.226875 1.19625 0.45375 1.8125 0.6875 C1.8125 1.6775 1.8125 2.6675 1.8125 3.6875 C1.1525 3.6875 0.4925 3.6875 -0.1875 3.6875 C-0.1875 3.0275 -0.1875 2.3675 -0.1875 1.6875 C-1.1775 2.1825 -1.1775 2.1825 -2.1875 2.6875 C-1.8575 3.3475 -1.5275 4.0075 -1.1875 4.6875 C-1.8475 4.6875 -2.5075 4.6875 -3.1875 4.6875 C-2.1975 6.0075 -1.2075 7.3275 -0.1875 8.6875 C-1.5075 8.6875 -2.8275 8.6875 -4.1875 8.6875 C-4.875 5.875 -4.875 5.875 -5.1875 2.6875 C-3.62441875 0.13720955 -3.00012909 -0.42858987 0 0 Z " fill="#605914" transform="translate(244.1875,101.3125)"/>
<path d="M0 0 C3.88975419 3.59054233 6.89732195 7.73898882 10 12 C9.01 13.485 9.01 13.485 8 15 C7.62875 14.360625 7.2575 13.72125 6.875 13.0625 C4.3654227 8.96352375 1.68367704 4.98643288 -1 1 C-0.67 0.67 -0.34 0.34 0 0 Z " fill="#5D5612" transform="translate(74,92)"/>
<path d="M0 0 C0.4125 0.639375 0.825 1.27875 1.25 1.9375 C3.17810487 4.20990931 4.11424181 4.60196439 7 5 C3.86501708 6.85776765 1.62528568 7.20140476 -2 7 C-2 5 -2 5 -1 4 C-1.66 3.67 -2.32 3.34 -3 3 C-3 2.34 -3 1.68 -3 1 C-2.01 0.67 -1.02 0.34 0 0 Z " fill="#464106" transform="translate(62,108)"/>
<path d="M0 0 C0.99 0 1.98 0 3 0 C3.04898438 0.68707031 3.09796875 1.37414062 3.1484375 2.08203125 C3.22320312 2.98308594 3.29796875 3.88414063 3.375 4.8125 C3.44460937 5.70582031 3.51421875 6.59914063 3.5859375 7.51953125 C3.86645036 10.24398499 3.86645036 10.24398499 6 13 C5.67 13.99 5.34 14.98 5 16 C3.68 15.67 2.36 15.34 1 15 C1.33 14.67 1.66 14.34 2 14 C2.07258946 11.81360547 2.08373783 9.62499611 2.0625 7.4375 C2.05347656 6.23996094 2.04445312 5.04242188 2.03515625 3.80859375 C2.02355469 2.88175781 2.01195312 1.95492187 2 1 C1.34 0.67 0.68 0.34 0 0 Z " fill="#CBC263" transform="translate(234,95)"/>
<path d="M0 0 C0 1.65 0 3.3 0 5 C-2.64 4.67 -5.28 4.34 -8 4 C-7.67 3.01 -7.34 2.02 -7 1 C-4 0 -4 0 0 0 Z " fill="#9A9132" transform="translate(104,123)"/>
<path d="M0 0 C3.43183318 0.84044894 5.48528134 1.48528134 8 4 C1.6 5.35384615 1.6 5.35384615 -1.4375 3.5625 C-1.953125 3.046875 -2.46875 2.53125 -3 2 C-2.01 1.34 -1.02 0.68 0 0 Z " fill="#7F7613" transform="translate(64,103)"/>
<path d="M0 0 C0.99 0.33 1.98 0.66 3 1 C3 1.66 3 2.32 3 3 C2.01 3.495 2.01 3.495 1 4 C2.05270463 5.15811388 2.05270463 5.15811388 4 6 C2.515 8.475 2.515 8.475 1 11 C0.34 10.34 -0.32 9.68 -1 9 C-0.9765625 6.8359375 -0.9765625 6.8359375 -0.625 4.375 C-0.51414062 3.55773438 -0.40328125 2.74046875 -0.2890625 1.8984375 C-0.19367187 1.27195313 -0.09828125 0.64546875 0 0 Z " fill="#4B450D" transform="translate(17,58)"/>
<path d="M0 0 C1.32 0.33 2.64 0.66 4 1 C0.12435233 4.61139896 0.12435233 4.61139896 -2 6 C-4.375 5.8125 -4.375 5.8125 -6 5 C-6.33 5.99 -6.66 6.98 -7 8 C-7.33 6.68 -7.66 5.36 -8 4 C-6.865625 3.71125 -5.73125 3.4225 -4.5625 3.125 C-3.386875 2.75375 -2.21125 2.3825 -1 2 C-0.67 1.34 -0.34 0.68 0 0 Z " fill="#E0D773" transform="translate(41,43)"/>
<path d="M0 0 C-0.33 0.99 -0.66 1.98 -1 3 C-0.34 3.66 0.32 4.32 1 5 C-2 6 -2 6 -4.1875 5.0625 C-4.785625 4.711875 -5.38375 4.36125 -6 4 C-6 2.68 -6 1.36 -6 0 C-3 -1 -3 -1 0 0 Z " fill="#9B9028" transform="translate(36,36)"/>
<path d="M0 0 C0.66 0.66 1.32 1.32 2 2 C-2.51718381 3.36884358 -5.58774263 2.47075246 -10 1 C-6.42894485 -1.33492068 -4.06144397 -1.05950712 0 0 Z " fill="#D0C762" transform="translate(115,124)"/>
<path d="M0 0 C0.99 0 1.98 0 3 0 C3 0.66 3 1.32 3 2 C4.98 1.67 6.96 1.34 9 1 C9 1.66 9 2.32 9 3 C9.66 3 10.32 3 11 3 C11 4.65 11 6.3 11 8 C10.67 6.68 10.34 5.36 10 4 C7.03 3.67 4.06 3.34 1 3 C0.67 2.01 0.34 1.02 0 0 Z " fill="#BBB03E" transform="translate(71,112)"/>
<path d="M0 0 C1.98 0.495 1.98 0.495 4 1 C3.67 2.65 3.34 4.3 3 6 C1.68 5.67 0.36 5.34 -1 5 C-0.67 3.35 -0.34 1.7 0 0 Z " fill="#EEE68A" transform="translate(279,103)"/>
<path d="M0 0 C0.99 0 1.98 0 3 0 C3 2.31 3 4.62 3 7 C4.32 7.33 5.64 7.66 7 8 C4.625 8.125 4.625 8.125 2 8 C0 6 0 6 -0.125 2.875 C-0.08375 1.92625 -0.0425 0.9775 0 0 Z " fill="#F6EF9A" transform="translate(333,123)"/>
<path d="M0 0 C7.42857143 -0.28571429 7.42857143 -0.28571429 11 2 C5.70769231 4.21538462 5.70769231 4.21538462 2.125 3.125 C1.42375 2.75375 0.7225 2.3825 0 2 C0 1.34 0 0.68 0 0 Z " fill="#585109" transform="translate(105,126)"/>
<path d="M0 0 C1.134375 0.020625 2.26875 0.04125 3.4375 0.0625 C3.1075 0.7225 2.7775 1.3825 2.4375 2.0625 C1.1175 2.0625 -0.2025 2.0625 -1.5625 2.0625 C-1.5625 4.0425 -1.5625 6.0225 -1.5625 8.0625 C-2.2225 8.0625 -2.8825 8.0625 -3.5625 8.0625 C-3.94313221 5.7364143 -4.27519945 3.40194736 -4.5625 1.0625 C-3.5625 0.0625 -3.5625 0.0625 0 0 Z " fill="#534D17" transform="translate(327.5625,120.9375)"/>
<path d="M0 0 C2.86724686 0.57344937 3.8614515 0.8614515 6 3 C6 3.99 6 4.98 6 6 C4.35 5.67 2.7 5.34 1 5 C0.67 3.35 0.34 1.7 0 0 Z " fill="#2C2809" transform="translate(59,95)"/>
<path d="M0 0 C2.5 1.3125 2.5 1.3125 5 3 C5 3.99 5 4.98 5 6 C2.03 5.67 -0.94 5.34 -4 5 C-2.68 4.67 -1.36 4.34 0 4 C0 3.67 0 3.34 0 3 C0 2.01 0 1.02 0 0 Z " fill="#807821" transform="translate(72,31)"/>
<path d="M0 0 C0.66 0 1.32 0 2 0 C2.33 2.97 2.66 5.94 3 9 C1.68 9 0.36 9 -1 9 C-1.09765625 2.84765625 -1.09765625 2.84765625 -1 1 C-0.67 0.67 -0.34 0.34 0 0 Z " fill="#6B6415" transform="translate(318,121)"/>
<path d="M0 0 C2.475 0.495 2.475 0.495 5 1 C5 2.32 5 3.64 5 5 C3.35 5 1.7 5 0 5 C0 3.35 0 1.7 0 0 Z " fill="#ECE48B" transform="translate(246,123)"/>
<path d="M0 0 C3.3 0 6.6 0 10 0 C9.01 0.33 8.02 0.66 7 1 C6.67 2.65 6.34 4.3 6 6 C5.34 5.67 4.68 5.34 4 5 C4 3.68 4 2.36 4 1 C2.68 1.33 1.36 1.66 0 2 C0 1.34 0 0.68 0 0 Z " fill="#F1E66F" transform="translate(248,101)"/>
<path d="M0 0 C2.15802177 3.23703265 2.38391021 5.22645005 3 9 C3.97348627 11.28480253 3.97348627 11.28480253 5 13 C4.01 13.495 4.01 13.495 3 14 C-1.07877462 7.10284464 -1.07877462 7.10284464 -0.75 2.5 C-0.5025 1.675 -0.255 0.85 0 0 Z " fill="#A19625" transform="translate(24,75)"/>
<path d="M0 0 C2.35953094 2.35953094 2.49141413 3.77895617 3 7 C0.03 6.505 0.03 6.505 -3 6 C-3.33 6.66 -3.66 7.32 -4 8 C-4 6.35 -4 4.7 -4 3 C-3.01 3 -2.02 3 -1 3 C-0.67 2.01 -0.34 1.02 0 0 Z " fill="#645C06" transform="translate(52,98)"/>
<path d="M0 0 C2.52259061 1.97420135 2.9929808 2.96745642 3.6875 6.1875 C3.790625 7.115625 3.89375 8.04375 4 9 C2.0625 8.3125 2.0625 8.3125 0 7 C-0.93580311 4.12060581 -1.37245106 2.74490212 0 0 Z " fill="#C6BC59" transform="translate(75,96)"/>
<path d="M0 0 C3 2 3 2 3.51171875 4.1640625 C3.56972656 4.97617188 3.62773437 5.78828125 3.6875 6.625 C3.75324219 7.44226563 3.81898437 8.25953125 3.88671875 9.1015625 C3.92410156 9.72804688 3.96148438 10.35453125 4 11 C0.85041169 7.57653445 0.43820891 4.55737263 0 0 Z " fill="#242108" transform="translate(18,68)"/>
<path d="M0 0 C0.598125 0.226875 1.19625 0.45375 1.8125 0.6875 C1.4825 1.3475 1.1525 2.0075 0.8125 2.6875 C-0.1775 2.3575 -1.1675 2.0275 -2.1875 1.6875 C-2.1875 3.6675 -2.1875 5.6475 -2.1875 7.6875 C-2.8475 7.6875 -3.5075 7.6875 -4.1875 7.6875 C-4.875 5.375 -4.875 5.375 -5.1875 2.6875 C-3.60587179 0.1901923 -2.97595617 -0.4251366 0 0 Z " fill="#C8BD41" transform="translate(17.1875,38.3125)"/>
<path d="M0 0 C1.43931117 0.45261358 2.87638999 0.91232979 4.3125 1.375 C5.11300781 1.63023438 5.91351563 1.88546875 6.73828125 2.1484375 C9 3 9 3 12 5 C3.42857143 4.14285714 3.42857143 4.14285714 0 2 C0 1.34 0 0.68 0 0 Z " fill="#E0D56B" transform="translate(69,126)"/>
<path d="M0 0 C1.32 0.66 2.64 1.32 4 2 C3.34 2 2.68 2 2 2 C2 4.31 2 6.62 2 9 C1.34 9 0.68 9 0 9 C-0.87890625 2.84765625 -0.87890625 2.84765625 -1 1 C-0.67 0.67 -0.34 0.34 0 0 Z " fill="#544E0E" transform="translate(310,120)"/>
<path d="M0 0 C1.32 0.66 2.64 1.32 4 2 C3.34 2 2.68 2 2 2 C2 4.31 2 6.62 2 9 C1.34 9 0.68 9 0 9 C-0.87890625 2.84765625 -0.87890625 2.84765625 -1 1 C-0.67 0.67 -0.34 0.34 0 0 Z " fill="#534D0C" transform="translate(282,120)"/>
<path d="M0 0 C1.98 0.99 1.98 0.99 4 2 C3.34 2 2.68 2 2 2 C2 3.98 2 5.96 2 8 C2.66 8.33 3.32 8.66 4 9 C2.68 9 1.36 9 0 9 C0 6.03 0 3.06 0 0 Z " fill="#534C0C" transform="translate(339,101)"/>
<path d="M0 0 C1.65 0 3.3 0 5 0 C5.66 2.31 6.32 4.62 7 7 C5.68 7.33 4.36 7.66 3 8 C3.0928125 6.576875 3.0928125 6.576875 3.1875 5.125 C3.125625 4.09375 3.06375 3.0625 3 2 C2.01 1.34 1.02 0.68 0 0 Z " fill="#5D560D" transform="translate(308,102)"/>
<path d="M0 0 C0 1.32 0 2.64 0 4 C-0.99 4 -1.98 4 -3 4 C-3 3.34 -3 2.68 -3 2 C-4.65 2.33 -6.3 2.66 -8 3 C-8 2.34 -8 1.68 -8 1 C-5.07175348 0.02391783 -3.04386724 -0.08226668 0 0 Z " fill="#EEE68B" transform="translate(44,25)"/>
<path d="M0 0 C0.99 0.33 1.98 0.66 3 1 C3 1.66 3 2.32 3 3 C3.33 3.33 3.66 3.66 4 4 C4.04063832 5.66617115 4.042721 7.33388095 4 9 C2 7.875 2 7.875 0 6 C-0.25 2.8125 -0.25 2.8125 0 0 Z " fill="#6E6617" transform="translate(41,74)"/>
<path d="M0 0 C0.66 0 1.32 0 2 0 C2 1.32 2 2.64 2 4 C2.66 4.33 3.32 4.66 4 5 C3.01 5.99 2.02 6.98 1 8 C-0.42944945 5.64561267 -1.08661261 4.51967567 -0.625 1.75 C-0.41875 1.1725 -0.2125 0.595 0 0 Z " fill="#625B0E" transform="translate(36,67)"/>
<path d="M0 0 C1.32 0 2.64 0 4 0 C4 1.65 4 3.3 4 5 C2.68 5 1.36 5 0 5 C0 3.35 0 1.7 0 0 Z " fill="#F3EC8B" transform="translate(258,123)"/>
<path d="M0 0 C0.99 0 1.98 0 3 0 C3 2.31 3 4.62 3 7 C2.01 6.67 1.02 6.34 0 6 C0 4.02 0 2.04 0 0 Z " fill="#F8F1A0" transform="translate(201,123)"/>
<path d="M0 0 C1.32 0 2.64 0 4 0 C4 1.65 4 3.3 4 5 C2.68 5 1.36 5 0 5 C0 3.35 0 1.7 0 0 Z " fill="#F3EC90" transform="translate(227,123)"/>
<path d="M0 0 C1.32 0 2.64 0 4 0 C5.25664978 2.90600261 6 4.79604584 6 8 C5.34 8 4.68 8 4 8 C2.68 5.36 1.36 2.72 0 0 Z " fill="#5B550F" transform="translate(185,102)"/>
<path d="M0 0 C-0.99 0 -1.98 0 -3 0 C-3.33 1.32 -3.66 2.64 -4 4 C-5.32 4.33 -6.64 4.66 -8 5 C-7.67 3.35 -7.34 1.7 -7 0 C-3.86650268 -1.04449911 -3.01031744 -0.93423645 0 0 Z " fill="#454010" transform="translate(223,63)"/>
<path d="M0 0 C0.66 0 1.32 0 2 0 C2 1.65 2 3.3 2 5 C0.68 5 -0.64 5 -2 5 C-2.33 5.66 -2.66 6.32 -3 7 C-3 6.34 -3 5.68 -3 5 C-3.66 4.67 -4.32 4.34 -5 4 C-4.67 3.34 -4.34 2.68 -4 2 C-3.34 2 -2.68 2 -2 2 C-2 2.66 -2 3.32 -2 4 C-1.34 3.67 -0.68 3.34 0 3 C0 2.01 0 1.02 0 0 Z " fill="#E5DB75" transform="translate(39,50)"/>
<path d="M0 0 C1.32 0 2.64 0 4 0 C4.66 1.65 5.32 3.3 6 5 C5.01 5.495 5.01 5.495 4 6 C3.34 5.67 2.68 5.34 2 5 C2 4.34 2 3.68 2 3 C1.34 3 0.68 3 0 3 C0 2.01 0 1.02 0 0 Z " fill="#090801" transform="translate(27,9)"/>
<path d="M0 0 C1.32 0 2.64 0 4 0 C3.67 1.65 3.34 3.3 3 5 C2.01 5 1.02 5 0 5 C0 3.35 0 1.7 0 0 Z " fill="#F9F291" transform="translate(290,104)"/>
<path d="M0 0 C1.32 0 2.64 0 4 0 C4 1.65 4 3.3 4 5 C2.68 4.67 1.36 4.34 0 4 C0 2.68 0 1.36 0 0 Z " fill="#F4EC93" transform="translate(214,104)"/>
<path d="M0 0 C0.99 0 1.98 0 3 0 C1.87548273 2.9719385 0.77706209 5.33440687 -1 8 C-1.66 8 -2.32 8 -3 8 C-3 7.01 -3 6.02 -3 5 C-2.34 5 -1.68 5 -1 5 C-0.67 3.35 -0.34 1.7 0 0 Z " fill="#6C6418" transform="translate(197,102)"/>
<path d="M0 0 C3.34373475 0.55728913 6.03312999 1.35173889 9 3 C9 3.66 9 4.32 9 5 C5.22454612 3.90931332 2.52956528 3.0916909 0 0 Z " fill="#9A9131" transform="translate(55,98)"/>
<path d="M0 0 C0.99 0.33 1.98 0.66 3 1 C3 1.66 3 2.32 3 3 C3.66 3.33 4.32 3.66 5 4 C4.34 4 3.68 4 3 4 C2.67 4.66 2.34 5.32 2 6 C0.35 5.67 -1.3 5.34 -3 5 C-2 4 -1 3 0 2 C0 1.34 0 0.68 0 0 Z " fill="#CDC465" transform="translate(47,79)"/>
<path d="M0 0 C1.32 0.66 2.64 1.32 4 2 C3.67 2.99 3.34 3.98 3 5 C1.68 5 0.36 5 -1 5 C-0.67 3.35 -0.34 1.7 0 0 Z " fill="#433E0E" transform="translate(46,67)"/>
<path d="M0 0 C3.26954202 0.56371414 4.82575883 1.49962266 7 4 C6.34 4 5.68 4 5 4 C4.67 4.66 4.34 5.32 4 6 C3.67 5.34 3.34 4.68 3 4 C2.01 3.67 1.02 3.34 0 3 C0 2.01 0 1.02 0 0 Z " fill="#EFE25C" transform="translate(38,61)"/>
<path d="M0 0 C0.33 0.66 0.66 1.32 1 2 C2.65 2 4.3 2 6 2 C5.67 2.66 5.34 3.32 5 4 C1.9375 4.625 1.9375 4.625 -1 5 C-0.67 3.35 -0.34 1.7 0 0 Z " fill="#645C0F" transform="translate(16,28)"/>
<path d="M0 0 C2.475 0.495 2.475 0.495 5 1 C5 2.32 5 3.64 5 5 C4.01 5 3.02 5 2 5 C1.34 3.35 0.68 1.7 0 0 Z " fill="#E2D97D" transform="translate(35,19)"/>
<path d="M0 0 C0.99 0.33 1.98 0.66 3 1 C3 2.32 3 3.64 3 5 C1.68 5 0.36 5 -1 5 C-0.67 3.35 -0.34 1.7 0 0 Z " fill="#F7F2A1" transform="translate(231,103)"/>
<path d="M0 0 C3.73487777 0.4979837 5.81237635 0.87491756 9 3 C6.36 3 3.72 3 1 3 C0.67 2.01 0.34 1.02 0 0 Z " fill="#E6DF88" transform="translate(49,104)"/>
<path d="M0 0 C2.475 0.495 2.475 0.495 5 1 C4.67 2.65 4.34 4.3 4 6 C2.62437146 4.71034824 1.29233607 3.37310707 0 2 C0 1.34 0 0.68 0 0 Z " fill="#ECE37F" transform="translate(70,94)"/>
<path d="M0 0 C1.65 0 3.3 0 5 0 C4.67 1.65 4.34 3.3 4 5 C3.01 4.67 2.02 4.34 1 4 C0.3125 1.9375 0.3125 1.9375 0 0 Z " fill="#FAF29B" transform="translate(43,90)"/>
<path d="M0 0 C2.7839183 1.39195915 2.97898997 3.15575779 4 6 C2.68 6.33 1.36 6.66 0 7 C-1.125 2.25 -1.125 2.25 0 0 Z " fill="#494304" transform="translate(29,67)"/>
<path d="M0 0 C0.66 0 1.32 0 2 0 C2.33 2.64 2.66 5.28 3 8 C2.01 7.34 1.02 6.68 0 6 C-0.1875 2.875 -0.1875 2.875 0 0 Z " fill="#4C460B" transform="translate(54,63)"/>
<path d="M0 0 C0.99 0 1.98 0 3 0 C2.67 1.65 2.34 3.3 2 5 C0.68 4.67 -0.64 4.34 -2 4 C-1.34 2.68 -0.68 1.36 0 0 Z " fill="#DCD47C" transform="translate(30,63)"/>
<path d="M0 0 C-2.68841859 2.25245881 -4.64641875 3.88213958 -8 5 C-7.8125 3.125 -7.8125 3.125 -7 1 C-2.66666667 -1.33333333 -2.66666667 -1.33333333 0 0 Z " fill="#4B4612" transform="translate(300,12)"/>
<path d="M0 0 C0.33 1.32 0.66 2.64 1 4 C-0.65 4.33 -2.3 4.66 -4 5 C-4 4.01 -4 3.02 -4 2 C-2.68 2 -1.36 2 0 2 C0 1.34 0 0.68 0 0 Z " fill="#272407" transform="translate(156,125)"/>
<path d="M0 0 C-0.33 0.66 -0.66 1.32 -1 2 C-3.31 1.67 -5.62 1.34 -8 1 C-8 1.66 -8 2.32 -8 3 C-8.66 3 -9.32 3 -10 3 C-9.67 2.01 -9.34 1.02 -9 0 C-3.375 -1.125 -3.375 -1.125 0 0 Z " fill="#3B3609" transform="translate(147,124)"/>
<path d="M0 0 C1.9375 0.375 1.9375 0.375 4 1 C4.33 1.66 4.66 2.32 5 3 C3.625 4.5 3.625 4.5 2 6 C1.34 6 0.68 6 0 6 C0 5.34 0 4.68 0 4 C0.66 4 1.32 4 2 4 C1.34 2.68 0.68 1.36 0 0 Z " fill="#998E20" transform="translate(52,83)"/>
<path d="M0 0 C0.99 0 1.98 0 3 0 C3 1.65 3 3.3 3 5 C2.01 5.33 1.02 5.66 0 6 C0 4.02 0 2.04 0 0 Z " fill="#716A20" transform="translate(22,56)"/>
<path d="M0 0 C0.99 0.33 1.98 0.66 3 1 C4.1875 3.5625 4.1875 3.5625 5 6 C4.01 6 3.02 6 2 6 C2 5.34 2 4.68 2 4 C1.34 4 0.68 4 0 4 C0 2.68 0 1.36 0 0 Z " fill="#FCF6B0" transform="translate(35,48)"/>
<path d="M0 0 C0.99 0.33 1.98 0.66 3 1 C2.38125 1.598125 1.7625 2.19625 1.125 2.8125 C-1.13676954 5.00811144 -1.13676954 5.00811144 -3 8 C-3.36923077 3.44615385 -3.36923077 3.44615385 -1.5 1.1875 C-1.005 0.795625 -0.51 0.40375 0 0 Z " fill="#3F3A11" transform="translate(206,47)"/>
<path d="M0 0 C1.32 0 2.64 0 4 0 C4.33 1.32 4.66 2.64 5 4 C3.35 4 1.7 4 0 4 C0 2.68 0 1.36 0 0 Z " fill="#322E09" transform="translate(22,37)"/>
<path d="M0 0 C0 0.66 0 1.32 0 2 C-2.97 2 -5.94 2 -9 2 C-6.32750728 -0.67249272 -3.5165484 -1.7582742 0 0 Z " fill="#897F15" transform="translate(37,22)"/>
</svg>
